<?xml version="1.0" encoding="UTF-8" standalone="no"?>
<svg
   xmlns:dc="http://purl.org/dc/elements/1.1/"
   xmlns:cc="http://creativecommons.org/ns#"
   xmlns:rdf="http://www.w3.org/1999/02/22-rdf-syntax-ns#"
   xmlns:svg="http://www.w3.org/2000/svg"
   xmlns="http://www.w3.org/2000/svg"
   xmlns:sodipodi="http://sodipodi.sourceforge.net/DTD/sodipodi-0.dtd"
   xmlns:inkscape="http://www.inkscape.org/namespaces/inkscape"
   width="210mm"
   height="297mm"
   viewBox="0 0 210 297"
   version="1.1"
   id="svg8"
   inkscape:version="1.0.1 (c497b03c, 2020-09-10)"
   sodipodi:docname="me.svg">
  <defs
     id="defs2">
    <linearGradient
       id="be976a09-f639-4984-bf14-ee296c482822"
       x1="320.96"
       y1="796.01"
       x2="320.96"
       y2="284.81"
       gradientUnits="userSpaceOnUse"
       gradientTransform="matrix(0.65647242,0,0,0.57022314,1539.4831,367.45084)">
      <stop
         offset="0"
         stop-color="gray"
         stop-opacity="0.25"
         id="stop264" />
      <stop
         offset="0.54"
         stop-color="gray"
         stop-opacity="0.12"
         id="stop266" />
      <stop
         offset="1"
         stop-color="gray"
         stop-opacity="0.1"
         id="stop268" />
    </linearGradient>
  </defs>
  <sodipodi:namedview
     id="base"
     pagecolor="#ffffff"
     bordercolor="#666666"
     borderopacity="1.0"
     inkscape:pageopacity="0.0"
     inkscape:pageshadow="2"
     inkscape:zoom="0.44215404"
     inkscape:cx="450.00492"
     inkscape:cy="542.19472"
     inkscape:document-units="mm"
     inkscape:current-layer="g428"
     inkscape:document-rotation="0"
     showgrid="false"
     inkscape:window-width="1020"
     inkscape:window-height="772"
     inkscape:window-x="331"
     inkscape:window-y="28"
     inkscape:window-maximized="0" />
  <metadata
     id="metadata5">
    <rdf:RDF>
      <cc:Work
         rdf:about="">
        <dc:format>image/svg+xml</dc:format>
        <dc:type
           rdf:resource="http://purl.org/dc/dcmitype/StillImage" />
        <dc:title></dc:title>
      </cc:Work>
    </rdf:RDF>
  </metadata>
  <g
     inkscape:label="Layer 1"
     inkscape:groupmode="layer"
     id="layer1">
    <g
       id="g128"
       transform="matrix(0.26458333,0,0,0.26458333,7.8263476,66.159812)">
      <path
         d="m 230.14646,339.27686 c -1.69595,-0.0135 -3.41141,-0.0254 -5.09616,-0.0786 l 0.0523,-1.73024 c 1.66731,0.0524 3.3724,0.0761 5.04428,0.0777 1.67936,0 3.39066,-0.0279 5.08827,-0.0837 l 0.0547,1.72942 c -1.71628,0.0566 -3.44627,0.0853 -5.14346,0.0853 z m -15.31333,-0.73115 c -3.3836,-0.32631 -6.80082,-0.76835 -10.15621,-1.31354 l 0.26807,-1.70913 c 3.3197,0.53928 6.7004,0.97713 10.04832,1.30006 z m 30.67279,-0.0186 -0.16183,-1.72265 c 3.34668,-0.32631 6.72695,-0.76835 10.04665,-1.3127 l 0.27055,1.70914 c -3.35583,0.55026 -6.77263,0.99656 -10.1554,1.32621 z m -50.8823,-3.27033 c -3.31306,-0.76496 -6.64645,-1.6508 -9.90723,-2.63215 l 0.48177,-1.66013 c 3.22592,0.97121 6.52363,1.84691 9.80142,2.60342 z m 71.08808,-0.0431 -0.37762,-1.68716 c 3.28525,-0.76328 6.58213,-1.6432 9.7985,-2.6161 l 0.48385,1.66013 c -3.25126,0.98302 -6.58383,1.87224 -9.90477,2.64313 z m -90.71664,-5.86531 c -3.19687,-1.19606 -6.3954,-2.51298 -9.50679,-3.91529 l 0.68801,-1.58233 c 3.07778,1.38623 6.24186,2.68964 9.40471,3.87301 z m 110.33772,-0.0676 -0.58759,-1.62465 c 3.14334,-1.17914 6.29664,-2.48171 9.37192,-3.87132 l 0.68968,1.58234 c -3.10935,1.40487 -6.29667,2.72179 -9.47404,3.91363 z m -129.08034,-8.3783 c -3.00845,-1.59925 -6.01281,-3.3236 -8.92875,-5.12401 l 0.88138,-1.48091 c 2.88522,1.78267 5.8572,3.48758 8.83372,5.06991 z m 147.76444,-0.0634 -0.78677,-1.53416 c 2.96947,-1.58149 5.9348,-3.2864 8.81215,-5.06738 l 0.88303,1.47923 c -2.90891,1.8004 -5.90577,3.52306 -8.90844,5.12231 z M 138.73809,310.08302 c -2.78648,-1.98046 -5.54805,-4.08096 -8.20879,-6.24146 l 1.05981,-1.35411 c 2.63253,2.13852 5.36506,4.21619 8.12165,6.17552 z m 182.75865,-0.0617 -0.97434,-1.41836 c 2.75619,-1.96186 5.48498,-4.03954 8.11086,-6.17553 l 1.06065,1.35243 c -2.6541,2.15881 -5.41195,4.25846 -8.19717,6.24146 z M 122.72925,297.07858 c -2.51883,-2.32872 -4.99532,-4.769 -7.35937,-7.25155 l 1.22,-1.20535 c 2.33914,2.45635 4.78949,4.87047 7.28218,7.17544 z m 214.75682,-0.06 -1.14363,-1.28142 c 2.48645,-2.29998 4.93473,-4.71575 7.27761,-7.17804 l 1.21999,1.20366 c -2.36695,2.48931 -4.84178,4.93047 -7.35397,7.2558 z M 108.47985,282.11481 c -2.20552,-2.63388 -4.35587,-5.37336 -6.39208,-8.14247 l 1.36066,-1.03799 c 2.01464,2.74035 4.14213,5.45113 6.32444,8.05625 z m 243.24857,-0.0718 -1.29302,-1.12252 c 2.18187,-2.60765 4.30979,-5.3218 6.32402,-8.06554 l 1.36108,1.0363 c -2.0358,2.77331 -4.18618,5.51621 -6.39208,8.15175 z M 96.219783,265.43176 c -1.85946,-2.90011 -3.64877,-5.89489 -5.31858,-8.90151 l 1.47976,-0.85203 c 1.65155,2.97449 3.4222,5.938 5.26214,8.80684 z m 267.770777,-0.0938 -1.42415,-0.94501 c 1.84076,-2.87476 3.61099,-5.84336 5.26339,-8.82459 l 1.48059,0.85033 c -1.66979,3.01419 -3.45996,6.01493 -5.31983,8.91927 z M 86.154863,247.30162 c -1.47893,-3.11565 -2.87611,-6.31753 -4.15253,-9.51771 l 1.57437,-0.6509 c 1.26315,3.16468 2.64538,6.33274 4.10854,9.41463 z m 287.903527,-0.13525 -1.53034,-0.7523 c 1.46232,-3.08691 2.84498,-6.26343 4.10979,-9.44332 l 1.57519,0.64916 c -1.27812,3.21456 -2.67569,6.42658 -4.15464,9.54646 z M 78.454403,228.00163 c -1.07516,-3.2881 -2.05738,-6.65141 -2.91967,-9.99698 l 1.64408,-0.43954 c 0.85275,3.30922 1.82461,6.63707 2.88813,9.88878 z m 303.299877,-0.18342 -1.61337,-0.54436 c 1.05732,-3.24836 2.02585,-6.57702 2.87652,-9.893 l 1.64491,0.43784 c -0.86064,3.35236 -1.83911,6.7165 -2.90806,9.99952 z M 73.254503,207.83949 c -0.64941,-3.39629 -1.19882,-6.85935 -1.63329,-10.29367 l 1.68558,-0.22146 c 0.4299,3.39798 0.9735,6.82385 1.61586,10.18379 z m 313.676017,-0.19019 -1.66815,-0.32796 c 0.63738,-3.35909 1.17767,-6.78666 1.60342,-10.18717 l 1.68641,0.21978 c -0.43073,3.43682 -0.97683,6.90072 -1.62168,10.29533 z M 70.638583,187.16761 c -0.21785,-3.45039 -0.33031,-6.9574 -0.33404,-10.42387 l 1.69968,-0.002 c 0.003,3.43009 0.11494,6.89992 0.33073,10.31394 z m 318.884627,-0.19358 -1.69637,-0.10988 c 0.21161,-3.41065 0.31869,-6.88048 0.31869,-10.31142 l -8.5e-4,-0.37952 h 1.69969 l 8.5e-4,0.37361 c 0,3.47321 -0.10869,6.97937 -0.32201,10.42721 z m -317.211907,-20.54422 -1.69638,-0.10647 c 0.21077,-3.45714 0.53324,-6.94978 0.95857,-10.38157 l 1.68641,0.21639 c -0.42119,3.39624 -0.74029,6.8517 -0.9486,10.27165 z m 315.492307,-0.56802 c -0.22077,-3.42164 -0.55191,-6.87626 -0.98429,-10.26746 l 1.68475,-0.22316 c 0.43737,3.42759 0.77266,6.91852 0.9959,10.37735 z m -312.951887,-19.89084 -1.66899,-0.32712 c 0.64112,-3.39755 1.40055,-6.81961 2.25615,-10.17112 l 1.64492,0.43531 c -0.84654,3.31601 -1.59763,6.7013 -2.23208,10.06293 z m 310.338467,-0.55828 c -0.64735,-3.36332 -1.41087,-6.74608 -2.26739,-10.05488 l 1.64326,-0.44122 c 0.86644,3.3443 1.63745,6.76343 2.29225,10.16307 z M 79.949513,126.0125 l -1.6142,-0.5427 c 1.06687,-3.28937 2.25449,-6.58887 3.53049,-9.80722 l 1.57604,0.6483 c -1.26232,3.18376 -2.43708,6.44776 -3.49233,9.70162 z m 300.075207,-0.53971 c -1.06728,-3.2492 -2.25159,-6.50391 -3.52054,-9.67408 l 1.57353,-0.6534 c 1.28307,3.20441 2.48065,6.49419 3.55872,9.77806 z m -292.483047,-18.61198 -1.53205,-0.75059 c 1.47436,-3.12158 3.06865,-6.236383 4.73805,-9.257374 l 1.48141,0.849498 c -1.65196,2.988476 -3.22882,6.069896 -4.68741,9.158466 z m 284.843587,-0.47208 c -1.46399,-3.07382 -3.04669,-6.14382 -4.70651,-9.124668 l 1.47893,-0.853722 c 1.67728,3.012534 3.27737,6.11593 4.7563,9.22356 z M 97.482513,88.870604 96.057533,87.92644 c 1.85364,-2.901801 3.82514,-5.782051 5.859267,-8.560021 l 1.36274,1.0346 c -2.01257,2.74881 -3.963307,5.59821 -5.797027,8.469585 z M 362.40623,88.463179 c -1.83911,-2.8608 -3.79524,-5.70133 -5.81528,-8.44253 l 1.35942,-1.03883 c 2.04161,2.77078 4.01933,5.64174 5.87837,8.53297 z m -252.8118,-16.13489 -1.29467,-1.12082 c 2.20137,-2.63766 4.51561,-5.2377 6.87842,-7.72744 l 1.22247,1.20282 c -2.33789,2.46353 -4.62766,5.0361 -6.80622,7.64544 z m 240.66253,-0.3567 c -2.18519,-2.60216 -4.48242,-5.16712 -6.82613,-7.62347 l 1.21833,-1.20619 c 2.36944,2.48212 4.69073,5.07456 6.89917,7.70461 z m -226.5874,-14.47648 -1.14447,-1.27973 c 2.51509,-2.33336 5.13433,-4.61178 7.78428,-6.77144 l 1.0623,1.35159 c -2.62215,2.13683 -5.21359,4.39116 -7.70211,6.69958 z m 212.47038,-0.31401 c -2.49227,-2.29786 -5.09077,-4.54543 -7.72495,-6.67973 l 1.05899,-1.35496 c 2.66157,2.15754 5.28828,4.42878 7.80627,6.75158 z m -196.66444,-12.57082 -0.97516,-1.41751 c 2.78108,-1.98511 5.66258,-3.9043 8.56441,-5.70471 l 0.88429,1.47837 c -2.87074,1.7814 -5.72195,3.6803 -8.47354,5.64385 z m 180.81123,-0.27556 c -2.76697,-1.96144 -5.62689,-3.85399 -8.50092,-5.62523 l 0.87972,-1.48091 c 2.90477,1.78985 5.7962,3.70269 8.59222,5.68527 z m -163.53055,-10.44665 -0.78926,-1.53332 c 3.00475,-1.60516 6.10203,-3.13256 9.2047,-4.53951 l 0.69132,1.58149 c -3.06988,1.39174 -6.13355,2.90308 -9.10676,4.49134 z m 146.19005,-0.23753 c -2.98482,-1.58234 -6.06053,-3.0865 -9.14245,-4.47104 l 0.68635,-1.58403 c 3.11467,1.39934 6.22402,2.91997 9.24119,4.51922 z m -127.71552,-8.13697 -0.59007,-1.62378 c 3.18691,-1.2007 6.45474,-2.31138 9.71303,-3.30077 l 0.4855,1.65927 c -3.22341,0.97838 -6.45598,2.07726 -9.60844,3.26528 z m 109.16379,-0.19652 c -3.15911,-1.17703 -6.39582,-2.26405 -9.62008,-3.23019 l 0.4797,-1.661 c 3.25915,0.97671 6.5311,2.0756 9.72465,3.26574 z m -89.76013,-5.69542 -0.37927,-1.68714 c 3.30684,-0.77174 6.68754,-1.44414 10.04832,-1.99991 l 0.27222,1.70913 c -3.3251,0.54942 -6.6697,1.21465 -9.94127,1.97792 z m 70.33534,-0.12593 c -3.27738,-0.75229 -6.62447,-1.40566 -9.94832,-1.94243 l 0.26641,-1.70998 c 3.35954,0.54266 6.74272,1.20324 10.05534,1.96355 z m -50.34866,-3.17694 -0.16433,-1.72266 c 3.37448,-0.33346 6.81162,-0.56126 10.21556,-0.67664 l 0.0564,1.73024 c -3.36824,0.11416 -6.76886,0.3394 -10.10765,0.66906 z m 30.35036,-0.0537 c -3.34377,-0.31823 -6.74563,-0.53124 -10.10973,-0.6331 l 0.0507,-1.73024 c 3.39979,0.10312 6.83775,0.31824 10.21721,0.63986 z"
         fill="#d0cde1"
         id="path42"
         style="stroke-width:0.857663" />
      <ellipse
         cx="224.12578"
         cy="18.156363"
         fill="#00cdac"
         id="circle44"
         rx="39.942638"
         ry="40.681034"
         style="stroke-width:0.857663" />
      <ellipse
         cx="378.79724"
         cy="128.94727"
         fill="#00cdac"
         id="circle46"
         rx="39.942638"
         ry="40.681034"
         style="stroke-width:0.857663" />
      <ellipse
         cx="330.35617"
         cy="298.59583"
         fill="#00cdac"
         id="circle48"
         rx="39.942638"
         ry="40.681034"
         style="stroke-width:0.857663" />
      <ellipse
         cx="138.2916"
         cy="305.52026"
         fill="#00cdac"
         id="circle50"
         rx="39.942638"
         ry="40.681034"
         style="stroke-width:0.857663" />
      <ellipse
         cx="80.502258"
         cy="128.94727"
         fill="#00cdac"
         id="circle52"
         rx="39.942638"
         ry="40.681034"
         style="stroke-width:0.857663" />
      <path
         d="m 241.24244,14.913019 h -13.93217 a 4.7767485,4.8650535 0 0 1 -4.77675,-4.86505 V -4.1417813 a 0.39804963,0.40540814 0 0 0 -0.39806,-0.40542 h -9.15543 a 6.368998,6.486738 0 0 0 -6.369,6.48673 V 34.373199 a 6.368998,6.486738 0 0 0 6.369,6.48674 h 22.29152 a 6.368998,6.486738 0 0 0 6.36899,-6.48674 v -19.05478 a 0.39805813,0.4054168 0 0 0 -0.3981,-0.4054 z m -9.15543,16.21682 h -15.92249 a 1.59225,1.621685 0 1 1 0,-3.24337 h 15.92249 a 1.59225,1.621685 0 0 1 0,3.24337 z m 0,-8.10842 h -15.92249 a 1.59225,1.621685 0 1 1 0,-3.24337 h 15.92249 a 1.59225,1.621685 0 1 1 0,3.24337 z"
         fill="#ffffff"
         id="path54"
         style="stroke-width:0.857663" />
      <path
         d="M 240.36869,11.324009 226.05733,-3.2519213 a 0.19903331,0.20271273 0 0 0 -0.33935,0.14291 V 10.047919 a 1.5922495,1.6216845 0 0 0 1.59225,1.62168 h 12.91811 a 0.19903331,0.20271273 0 0 0 0.14032,-0.34562 z"
         fill="#ffffff"
         id="path56"
         style="stroke-width:0.857663" />
      <path
         d="m 336.13339,290.58192 a 2.1167983,2.1559303 0 1 0 1.49737,0.63086 2.1167813,2.155913 0 0 0 -1.49737,-0.63086 z"
         fill="#ffffff"
         id="path58"
         style="stroke-width:0.857663" />
      <path
         d="m 347.9181,281.96064 v -0.007 a 1.6179318,1.6478415 0 0 0 -1.19998,-1.23588 c -2.36342,-0.58725 -6.08148,0.0388 -10.20167,1.71892 a 32.810004,33.416544 0 0 0 -10.67358,6.88374 25.43486,25.905059 0 0 0 -2.34361,2.73267 10.395148,10.587317 0 0 0 -4.64525,0.7601 c -4.57937,2.05253 -5.88719,7.30542 -6.23536,9.46214 a 1.9827695,2.0194238 0 0 0 2.15644,2.34252 h 0.0103 l 5.10124,-0.56705 c 0.006,0.0662 0.0135,0.12682 0.019,0.18255 a 2.7250737,2.7754505 0 0 0 0.78518,1.67369 l 2.48954,2.53719 a 2.717969,2.7682145 0 0 0 1.64252,0.8005 l 0.17051,0.0186 -0.55517,5.18907 v 0.0105 a 1.9827525,2.0194065 0 0 0 1.76831,2.2164 q 0.0915,0.01 0.18356,0.0106 a 2.0030808,2.0401106 0 0 0 0.32914,-0.0274 c 2.12948,-0.34895 7.28464,-1.6648 9.29436,-6.35387 a 10.488376,10.682268 0 0 0 0.74949,-4.71249 24.9668,25.428347 0 0 0 2.69258,-2.38694 32.573994,33.176171 0 0 0 6.76595,-10.78527 c 1.64094,-4.14864 2.25877,-7.96371 1.69646,-10.46294 z m -8.49096,14.12617 a 4.6610594,4.7472256 0 1 1 -0.003,-6.71359 l 0.003,0.003 a 4.6237937,4.7092711 0 0 1 0.0495,6.65972 z"
         fill="#ffffff"
         id="path60"
         style="stroke-width:0.857663" />
      <path
         d="m 322.89493,309.13222 a 1.2689181,1.2923759 0 0 0 -0.87242,0.21567 c -0.50679,0.35299 -1.01596,0.70196 -1.5299,1.04201 a 1.1833984,1.2052752 0 0 1 -1.66551,-1.61553 l 0.96362,-1.6963 a 1.2689606,1.2924191 0 0 0 -1.20234,-2.01214 4.8577046,4.9475061 0 0 0 -2.82582,1.41035 c -0.29028,0.29646 -1.17301,1.1963 -1.64807,4.62526 a 28.385941,28.910695 0 0 0 -0.25538,2.97015 1.2689521,1.2924105 0 0 0 1.23603,1.32511 q 0.0165,4.4e-4 0.0329,4.3e-4 h 0.0317 a 28.541989,29.069628 0 0 0 2.91862,-0.25848 c 3.3683,-0.48466 4.25181,-1.38452 4.54209,-1.68016 a 4.7974507,4.8861384 0 0 0 1.37921,-2.88694 1.2689606,1.2924191 0 0 0 -1.10479,-1.43943 z"
         fill="#ffffff"
         id="path62"
         style="stroke-width:0.857663" />
      <path
         d="m 124.54518,327.6264 h -2.89398 a 2.1704999,2.2106247 0 0 1 -2.1705,-2.21063 v -13.26368 a 2.1704999,2.2106247 0 0 1 2.1705,-2.21062 h 2.89398 a 2.1704999,2.2106247 0 0 1 2.1705,2.21062 v 13.26368 a 2.1704999,2.2106247 0 0 1 -2.1705,2.21063 z"
         fill="#ffffff"
         id="path64"
         style="stroke-width:0.857663" />
      <path
         d="m 144.80304,327.6264 h -2.89398 a 2.1704999,2.2106247 0 0 1 -2.1705,-2.21063 v -22.10612 a 2.1704999,2.2106247 0 0 1 2.1705,-2.21062 h 2.89398 a 2.1704999,2.2106247 0 0 1 2.1705,2.21062 v 22.10612 a 2.1704999,2.2106247 0 0 1 -2.1705,2.21063 z"
         fill="#ffffff"
         id="path66"
         style="stroke-width:0.857663" />
      <path
         d="M 154.93198,327.6264 H 152.038 a 2.1704999,2.2106247 0 0 1 -2.1705,-2.21063 v -32.4223 a 2.1704999,2.2106247 0 0 1 2.1705,-2.21062 h 2.89398 a 2.1704999,2.2106247 0 0 1 2.1705,2.21062 v 32.4223 a 2.1704999,2.2106247 0 0 1 -2.1705,2.21063 z"
         fill="#ffffff"
         id="path68"
         style="stroke-width:0.857663" />
      <path
         d="m 134.67411,327.6264 h -2.89394 a 2.1704999,2.2106247 0 0 1 -2.1705,-2.21063 v -39.791 a 2.1704999,2.2106247 0 0 1 2.1705,-2.21063 h 2.89398 a 2.1704999,2.2106247 0 0 1 2.1705,2.21063 v 39.791 a 2.1704999,2.2106247 0 0 1 -2.17054,2.21063 z"
         fill="#ffffff"
         id="path70"
         style="stroke-width:0.857663" />
      <path
         d="m 380.71073,127.88186 -2.06759,-2.10662 a 2.5339949,2.5808394 0 0 0 -3.57453,-0.01 l -14.37494,13.51156 a 2.6845617,2.7341896 0 0 0 -0.89878,1.85982 2.5427313,2.5897373 0 0 0 0.72932,1.9308 l 3.08833,3.18009 0.006,0.006 a 2.5569832,2.6042526 0 0 0 1.79677,0.75974 h 0.0935 a 2.6590239,2.7081797 0 0 0 1.83481,-0.90088 l 13.35847,-14.57411 a 2.5340119,2.5808567 0 0 0 0.0155,-3.64985 z"
         fill="#ffffff"
         id="path72"
         style="stroke-width:0.857663" />
      <path
         d="m 397.32747,123.62426 -0.0246,-0.025 -2.71376,-2.7357 a 1.6993723,1.7307876 0 0 0 -1.20999,-0.50488 1.7333915,1.7654357 0 0 0 -1.01281,0.3339 c 0,-0.0347 0.005,-0.0686 0.007,-0.0984 a 2.8947619,2.9482757 0 0 0 -0.41178,-2.03405 20.429308,20.806973 0 0 0 -1.96385,-2.31796 l -0.006,-0.006 a 21.435055,21.831312 0 0 0 -6.86716,-4.51164 11.050573,11.254858 0 0 0 -4.20332,-0.84281 8.0106235,8.1587111 0 0 0 -5.1274,1.82917 9.4961496,9.6716994 0 0 0 -1.12289,1.30818 1.267006,1.2904284 0 0 0 1.47685,1.96307 5.8944285,6.0033954 0 0 1 0.67944,-0.21211 5.0250643,5.1179597 0 0 1 1.461,-0.0927 6.1425658,6.2561198 0 0 1 2.82622,1.05572 4.0703332,4.1455791 0 0 1 1.44596,3.31397 8.4462532,8.6023941 0 0 1 -1.58375,2.78087 1.2669975,1.2904197 0 0 0 0.11483,1.69369 l 2.72484,2.77522 a 1.267006,1.2904284 0 0 0 1.74213,0.05 c 0.7705,-0.70086 1.94406,-1.7574 2.35425,-2.01629 a 2.9491264,3.0036452 0 0 1 1.16406,-0.46778 1.5188145,1.546892 0 0 1 0.89404,0.19195 0.0982079,0.10002341 0 0 1 -0.0246,0.0766 l -0.14412,0.13953 -0.0238,0.0226 a 1.7041144,1.7356174 0 0 0 -0.004,2.45453 l 0.009,0.009 2.71297,2.73489 a 1.6985394,1.7299393 0 0 0 1.20998,0.50407 1.7183238,1.7500894 0 0 0 1.20524,-0.50004 l 4.39491,-4.42131 c 0.015,-0.0153 0.0301,-0.0314 0.0444,-0.0476 a 1.7318363,1.7638517 0 0 0 -0.0221,-2.40175 z"
         fill="#ffffff"
         id="path74"
         style="stroke-width:0.857663" />
      <path
         d="m 86.844083,126.52509 a 1.5854593,1.6147687 0 0 1 -1.12107,-2.75656 l 3.63522,-3.70252 -3.63522,-3.70251 a 1.5854303,1.6147392 0 0 1 2.24214,-2.28359 l 4.75638,4.84431 a 1.5852978,1.6146043 0 0 1 0,2.28358 l -4.75638,4.84431 a 1.5805302,1.6097485 0 0 1 -1.12107,0.47298 z"
         fill="#ffffff"
         id="path76"
         style="stroke-width:0.857663" />
      <path
         d="m 61.476733,131.3694 a 1.5854083,1.6147168 0 0 1 -1.58546,-1.61477 v -1.61477 a 9.5601004,9.7368323 0 0 1 9.50805,-9.68861 h 20.61571 a 1.5854596,1.614769 0 1 1 0,3.22953 h -20.61101 a 6.3797741,6.4977132 0 0 0 -6.34183,6.46391 v 1.60993 a 1.5854083,1.6147168 0 0 1 -1.58546,1.61478 z"
         fill="#ffffff"
         id="path78"
         style="stroke-width:0.857663" />
      <path
         d="m 74.160403,144.28755 a 1.5805387,1.6097572 0 0 1 -1.12106,-0.47298 l -4.75638,-4.84431 a 1.5852723,1.6145783 0 0 1 0,-2.28358 l 4.75638,-4.8443 a 1.5854253,1.6147341 0 0 1 2.24213,2.28357 l -3.63522,3.70252 3.63522,3.70252 a 1.5854593,1.6147687 0 0 1 -1.12107,2.75656 z"
         fill="#ffffff"
         id="path80"
         style="stroke-width:0.857663" />
      <path
         d="m 70.989483,139.44324 a 1.5854596,1.614769 0 0 1 0,-3.22954 h 20.61095 a 6.3797741,6.4977132 0 0 0 6.34184,-6.4639 v -1.60993 a 1.5854593,1.6147687 0 0 1 3.170907,0 v 1.61477 a 9.5601004,9.7368323 0 0 1 -9.508037,9.68861 z"
         fill="#ffffff"
         id="path82"
         style="stroke-width:0.857663" />
      <g
         id="g262"
         transform="translate(888.75148,-219.35008)">
        <path
           d="m -258.05081,676.04649 v 72.16 a 22.58,22.58 0 0 1 -7.96,17.23 22.6419,22.6419 0 0 1 -14.69,5.41 h -204.65 a 22.58668,22.58668 0 0 1 -10.46,-2.55 21.15539,21.15539 0 0 1 -2.2,-1.3 22.66834,22.66834 0 0 1 -9.99,-18.79 v -72.13 a 186.97056,186.97056 0 0 1 249.95,-0.03 z"
           fill="#ffffff"
           opacity="0.3"
           id="path165" />
        <path
           d="m 619.7959,374.5752 c -20.52881,0 -43.05811,-3.90918 -60.646,-17.1001 -24.4873,-18.36524 -54.65674,-17.38526 -75.65332,-13.32813 a 164.86282,164.86282 0 0 0 -40.27441,13.415 l -0.92481,-1.77344 a 166.95707,166.95707 0 0 1 40.76758,-13.59521 c 21.40918,-4.14356 52.19678,-5.13379 77.28516,13.68213 46.99951,35.24951 131.15771,3.59033 132.00146,3.26758 l 0.7168,1.86718 a 242.3548,242.3548 0 0 1 -48.70606,11.85694 186.20165,186.20165 0 0 1 -24.5664,1.70805 z"
           transform="translate(-160.25,-159.32472)"
           fill="#ffffff"
           id="path171" />
        <path
           d="m 442.75,356.67528 c 0,0 69,-16.71229 117,6.16983 48,22.88212 133,-0.16983 133,-0.16983"
           transform="translate(-160.25,-159.32472)"
           fill="#ffffff"
           opacity="0.3"
           id="path173" />
        <path
           d="m 507.89111,382.63623 a 131.45576,131.45576 0 0 1 -24.82617,-2.479 166.95732,166.95732 0 0 1 -40.76758,-13.59523 l 0.92481,-1.77344 a 164.86232,164.86232 0 0 0 40.27441,13.415 c 20.99561,4.05664 51.16553,5.03711 75.65332,-13.32812 25.06641,-18.79981 60.17725,-18.74707 85.2124,-15.39209 a 242.3552,242.3552 0 0 1 48.70606,11.85693 l -0.7168,1.86719 c -0.84472,-0.32373 -85.001,-31.9834 -132.00146,3.26758 -16.4521,12.3394 -35.35694,16.16118 -52.45899,16.16118 z"
           transform="translate(-160.25,-159.32472)"
           fill="#ffffff"
           opacity="0.3"
           id="path175" />
        <path
           d="m 508.231,374.5835 c -34.63428,0 -65.39063,-12.4253 -65.852,-12.61524 l 0.76172,-1.84961 c 0.68457,0.28223 69.08837,27.89942 116.10009,0.0645 47.82471,-28.31983 132.90576,-3.041 133.75928,-2.78223 l -0.58008,1.91406 c -0.84472,-0.25586 -85.09277,-25.28125 -132.16064,2.58887 -16.06259,9.51119 -34.54062,12.67969 -52.02837,12.67969 z"
           transform="translate(-160.25,-159.32472)"
           fill="#ffffff"
           opacity="0.3"
           id="path177" />
        <path
           d="m 442.76,359.50545 c 0,0 68.99,22.88212 116.99,0 48,-22.88212 132.96,-2.16209 132.96,-2.16209"
           transform="translate(-160.25,-159.32472)"
           fill="#ffffff"
           opacity="0.3"
           id="path179" />
        <circle
           cx="-358.48898"
           cy="573.64551"
           fill="#ffb8b8"
           id="circle195"
           rx="31.162273"
           ry="35.473782"
           style="stroke-width:1.296" />
        <ellipse
           cx="-332.28436"
           cy="574.04865"
           rx="2.4788234"
           ry="7.2559996"
           fill="#ffb8b8"
           id="ellipse209"
           style="stroke-width:1.296" />
        <path
           d="m 442.76,356.67528 c 0,0 68.99,-36 116.99,0 48,36 132.96,3.40157 132.96,3.40157"
           transform="translate(-160.25,-159.32472)"
           fill="#ffffff"
           opacity="0.3"
           id="path215" />
        <g
           id="g428"
           transform="translate(-2068.6865,1.7110135)">
          <path
             d="m 1887.164,797.8781 c -0.6565,-2.0642 -1.313,-4.1512 -2.6259,-5.9474 a 23.980938,20.830251 0 0 0 -4.2999,-4.0885 c -4.7594,-3.7521 -10.602,-7.5612 -16.9107,-6.6146 a 22.576087,19.609974 0 0 0 -5.6063,1.7791 c -0.9191,0.3706 -1.8447,0.7413 -2.79,1.0549 a 13.897521,12.071624 0 0 1 -8.416,0.6386 c -1.4442,-0.3364 -2.79,-0.9408 -4.2145,-1.3172 a 13.359214,11.604041 0 0 0 -2.0679,-0.3877 35.213181,30.586769 0 0 0 3.9979,-1.8305 c 7.0768,-3.76344 12.7224,-10.5662 11.9347,-17.84224 -0.2692,-2.44626 -1.2342,-4.78988 -2.1927,-7.09928 l -2.5208,-6.05577 c -1.0898,-2.62303 -2.2189,-5.29738 -4.208,-7.47563 -2.2123,-2.42915 -5.3634,-4.07709 -8.6195,-5.30307 -6.9914,-2.64014 -14.6327,-3.5696 -22.1756,-4.47055 l -0.5252,-0.0627 v -70.7818 a 5.2517794,4.5617851 0 0 0 -5.2518,-4.56178 h -9.9127 q -0.6565,-3.48977 -1.313,-6.96813 c -1.2472,-6.62029 -2.5405,-13.36033 -6.0526,-19.31916 -2.2977,-3.90032 -5.9542,-7.62388 -10.8843,-8.38798 a 10.556077,9.1691881 0 0 1 -2.8294,-0.57022 c -1.4443,-0.61584 -2.232,-1.98438 -3.3415,-2.99367 -2.8622,-2.60592 -7.5166,-2.64584 -11.3504,-3.99157 -3.3874,-1.16895 -6.1577,-3.37002 -9.2431,-5.06358 -3.0855,-1.69356 -6.9193,-2.89673 -10.3329,-1.7962 0,0.21668 -0.046,0.43337 -0.072,0.64435 l -2.1926,-0.87814 c -2.3633,-0.95228 -4.7726,-1.92736 -6.6698,-3.48977 -2.4355,-1.99578 -3.7353,-4.64161 -4.7463,-7.45281 -0.105,-0.29082 -0.2035,-0.57023 -0.3085,-0.88385 a 30.480015,26.47546 0 0 0 8.1665,-13.5428 l 0.5317,1.49969 a 11.455444,9.9503938 0 0 0 0.4202,0.99218 4.5034008,3.9117308 0 0 0 1.3129,1.61374 2.3304771,2.0242922 0 0 0 0.5515,0.27941 2.2976535,1.995781 0 0 0 0.5645,0.12544 2.1007118,1.8247141 0 0 0 0.8141,-0.0513 3.1051146,2.6971555 0 0 0 1.9694,-1.58522 3.9388345,3.4213389 0 0 0 0.2297,-0.69567 4.142341,3.598108 0 0 0 0.046,-0.43337 c 0,-0.0456 0,-0.0912 0,-0.13685 0,-0.0456 0,-0.19958 0,-0.29652 0,-0.0969 0,-0.10264 0,-0.15966 0,-0.057 0,-0.18817 -0.033,-0.28511 v -0.14826 c 0,-0.11404 -0.039,-0.22809 -0.066,-0.33643 -0.026,-0.10834 0,-0.0627 0,-0.0912 -0.033,-0.14255 -0.072,-0.29081 -0.105,-0.43337 0,-0.0342 0,-0.0741 0,-0.10834 0,-0.0342 -0.059,-0.23379 -0.092,-0.35354 -0.033,-0.11974 -0.046,-0.15396 -0.066,-0.23379 v -0.0342 0 c -0.066,-0.22809 -0.1247,-0.45048 -0.1838,-0.67857 a 22.569522,19.604272 0 0 1 -0.3611,-6.02155 74.233902,64.480833 0 0 1 1.8776,-8.75293 l 0.1378,-0.5189 c 0.053,-0.19958 0.1051,-0.39916 0.151,-0.60444 0.105,-0.41056 0.2101,-0.82112 0.3085,-1.23738 v 0 l 0.2364,-1.04921 0.1772,-0.93517 v -0.11975 a 31.123358,27.034279 0 0 0 0.2298,-6.4036 v 0 c -0.302,-2.98227 -1.3655,-5.80487 -3.696,-8.05155 -1.6477,-1.59093 -3.8206,-2.76558 -5.3502,-4.43634 -1.4311,-1.56241 -2.2386,-3.48976 -3.7222,-5.02366 -4.0964,-4.24817 -14.6131,-7.52125 -21.0662,-8.09147 -7.3919,-0.65006 -19.3331,0.99219 -25.2939,4.78417 -2.2057,1.39705 -3.7156,3.42134 -5.2518,5.33729 -2.8228,3.56389 -6.0264,7.12209 -10.5495,9.12357 -1.7068,0.75269 -3.6631,1.32292 -4.7988,2.63443 a 8.1993406,7.122087 0 0 0 -1.2801,2.95376 67.426283,58.567619 0 0 0 -1.3523,11.27901 v 0 c 0,0.47329 0,0.94657 0,1.42556 a 11.967492,10.395168 0 0 0 1.0241,4.12271 c 0.105,0.19388 0.2232,0.38205 0.3479,0.57023 l 0.079,0.11974 a 26.114473,22.683477 0 0 1 2.1007,3.10772 4.7397309,4.1170111 0 0 1 0.3217,0.94657 8.0352225,6.9795313 0 0 1 -0.1838,2.49758 v 0 c 0,0.12544 -0.059,0.25089 -0.085,0.37634 l -0.059,0.2452 c 0,0.0855 0,0.17107 -0.053,0.2509 -0.053,0.24519 -0.099,0.49039 -0.1379,0.72988 v 0 a 5.9082518,5.1320083 0 0 0 0.1444,1.97297 2.9869495,2.5945153 0 0 0 1.4574,1.71067 4.2670708,3.7064504 0 0 0 1.1816,0.31933 c 0.4136,0.0627 0.8338,0.10264 1.2408,0.18247 a 6.1248877,5.3201819 0 0 1 1.5033,0.48469 6.0526758,5.2574574 0 0 1 1.267,0.70708 7.2211967,6.2724546 0 0 1 0.5448,0.47898 9.1906139,7.983124 0 0 1 0.9322,1.10624 q 0.2101,0.30222 0.3939,0.61584 a 16.195175,14.067405 0 0 1 1.1226,2.57741 c 0.1707,0.5303 0.3151,1.06631 0.4398,1.60232 0.059,0.2395 0.1116,0.47899 0.1576,0.71278 0.046,0.23379 0.092,0.47329 0.1313,0.70708 v 0 a 1.9103348,1.6593493 0 0 0 0.5251,-0.0912 c 0.9651,-0.30221 1.5034,-1.2773 1.8053,-2.22387 0.053,-0.15966 0.098,-0.31362 0.1379,-0.46758 0.151,-0.57022 0.3086,-1.19747 0.4595,-1.7962 a 30.440626,26.441247 0 0 0 11.9807,11.46148 c 0.1838,0.47329 0.361,0.94087 0.5186,1.41986 0.86,2.58311 1.2735,5.28597 -0.2167,7.54405 -1.0634,1.60233 -2.849,2.58881 -4.8447,3.27308 a 3.2035854,2.7826889 0 0 0 -1.0832,-0.79831 c -1.7265,-0.7527 -3.801,0.15966 -5.2518,1.283 -2.6259,2.06421 -4.766,5.02367 -8.219,5.70223 -1.2473,0.2509 -2.6259,0.19958 -3.6631,0.86104 a 8.5341415,7.4129008 0 0 0 -1.7003,1.93876 7.8251513,6.7970599 0 0 1 -6.7157,2.90814 c -1.2014,-0.0513 -2.6259,-0.29082 -3.4465,0.47328 -0.6105,0.57022 -0.6565,1.47118 -1.3129,2.01289 -0.8797,0.75269 -2.3239,0.38775 -3.5515,0.34213 -2.3371,-0.0855 -4.51,1.22598 -5.8427,2.90814 -1.3326,1.68216 -1.9694,3.69505 -2.6258,5.70223 v 0.0342 a 4.6937778,4.0770955 0 0 0 -0.4793,0.34783 6.9257841,6.0158541 0 0 0 -1.4508,2.0414 112.17144,97.434028 0 0 0 -9.2562,33.17558 3.9388345,3.4213389 0 0 1 -0.4202,1.60803 9.1052725,7.908995 0 0 1 -0.965,0.91236 3.6828103,3.1989518 0 0 0 0.6105,4.56178 4.1357763,3.5924058 0 0 1 0.7025,-0.80971 c -0.072,0.2623 -0.1379,0.5189 -0.1839,0.75269 a 23.298206,20.237219 0 0 0 -0.072,5.01797 q 0.9322,11.88345 1.8841,23.74979 c 0.1773,2.24098 0.3545,4.47625 0.5908,6.71153 q 0.6893,6.48914 1.9695,12.92695 c 0.039,0.19388 0.085,0.39346 0.1444,0.57023 -5.3503,1.47688 -10.1097,4.14552 -12.1119,8.59896 -0.6959,1.53961 -1.011,3.21606 -1.8644,4.69294 -0.9388,1.61943 -2.4815,2.91384 -3.5056,4.49906 -1.7659,2.72567 -1.8447,6.06717 -1.2013,9.12357 1.2407,5.95883 4.9498,11.28472 9.8471,15.61841 -0.2167,0 -0.4399,0 -0.6565,0 a 10.267229,8.9182899 0 0 0 -4.4837,1.39705 c -10.3591,5.25746 -16.2805,16.53645 -14.1207,26.83475 0.4267,2.0128 1.1685,4.0542 2.7178,5.5881 a 10.181887,8.8441609 0 0 0 4.7791,2.5432 16.602188,14.420943 0 0 0 3.5252,0.5703 c 8.0746,0.5702 15.8932,-2.6801 23.9875,-2.9538 a 64.334298,55.881868 0 0 1 8.0287,0.325 q 5.8492,0.422 11.718,0.536 c 6.3612,0.1312 9.939,-1.34 13.996,-5.4684 a 17.13393,14.882824 0 0 0 2.4749,-3.3871 c 3.4531,-0.1711 7.2672,-0.4334 10.0244,-0.6273 l 0.039,0.3308 c 0.151,1.1404 0.3808,2.4519 1.4312,3.1704 a 4.9957552,4.3393981 0 0 0 1.9694,0.7014 c 6.6303,1.4141 13.3395,2.8511 20.1668,2.8511 a 85.151038,73.963644 0 0 0 9.5779,-0.6387 l 11.9938,-1.2031 a 59.738991,51.890306 0 0 1 10.3066,1.9501 c 3.4662,1.0207 6.7026,2.5375 10.09,3.7407 7.8777,2.7713 16.3462,3.7635 24.7359,4.7328 1.4311,0.1654 3.0723,0.2795 4.1292,-0.5702 1.3654,-1.1404 0.9125,-3.045 0.5252,-4.6416 -0.1576,-0.6557 -0.2758,-1.3115 -0.3677,-1.973 a 115.04679,99.931606 0 0 1 16.5694,4.9952 l 0.9388,0.3592 c 0.2757,1.2431 1.5952,2.2353 2.8622,3.5753 a 10.503559,9.1235703 0 0 0 1.4508,1.5624 4.8382018,4.2025446 0 0 0 2.081,0.6501 97.039754,84.290385 0 0 0 26.8694,1.0549 27.479936,23.869541 0 0 1 5.5406,-0.1654 24.013761,20.858763 0 0 1 4.0045,0.7813 l 7.5954,1.8931 c 5.5997,1.3913 11.3307,2.7998 17.1405,2.4862 a 21.926179,19.045453 0 0 0 3.499,-0.4391 c 4.5953,-0.9238 8.8755,-3.1533 11.0813,-6.74 3.1182,-4.8755 1.6805,-10.8742 0,-16.2343 z"
             fill="url(#be976a09-f639-4984-bf14-ee296c482822)"
             id="path277"
             style="fill:url(#be976a09-f639-4984-bf14-ee296c482822);stroke-width:0.61183" />
          <ellipse
             cx="1733.1161"
             cy="755.49335"
             rx="93.875557"
             ry="22.808926"
             fill="#464353"
             id="ellipse281"
             style="stroke-width:0.61183" />
          <ellipse
             cx="1733.1161"
             cy="755.49335"
             rx="93.875557"
             ry="22.808926"
             opacity="0.1"
             id="ellipse283"
             style="stroke-width:0.61183" />
          <path
             d="m 1749.9481,635.08507 a 29.206458,25.369228 0 0 1 -15.0595,11.88345 37.799682,32.833449 0 0 1 -11.9543,1.97298 c -4.4575,0.17676 -9.0068,-0.0741 -13.1951,-1.39705 -5.6194,-1.76769 -10.2869,-5.38291 -13.7859,-9.59686 -3.499,-4.21395 -5.9083,-9.02663 -8.0024,-13.87923 -1.1029,-2.52609 -2.1533,-5.21754 -1.6346,-7.88618 3.3808,-0.66717 7.0833,-1.64795 8.8295,-4.25387 1.4902,-2.23527 1.0766,-4.91532 0.2166,-7.46992 -0.2429,-0.72419 -0.5251,-1.44267 -0.8074,-2.13264 -0.6565,-1.65364 -2.9213,-4.79557 -1.313,-6.20973 1.0044,-0.89525 5.2124,-1.35143 6.6632,-1.93305 4.4706,-1.7905 8.5933,-4.37932 13.5037,-5.22895 4.2473,-0.73559 8.6326,-0.0456 12.8734,0.71848 a 4.2342471,3.6779393 0 0 1 1.5887,0.4961 3.8206695,3.3186987 0 0 1 1.1816,1.5396 c 1.2079,2.5546 1.9169,5.3772 2.8885,8.04014 1.011,2.7884 2.3108,5.40572 4.7463,7.38439 1.8972,1.54531 4.313,2.51469 6.6763,3.45556 l 5.8164,2.3151 a 7.6479037,6.6430996 0 0 1 2.7506,1.54531 6.9651724,6.0500675 0 0 1 1.3129,3.10201 33.361929,28.97874 0 0 1 -3.2955,17.53436 z"
             fill="#fbbebe"
             id="path285"
             style="stroke-width:0.61183" />
          <circle
             cx="1710.134"
             cy="578.38385"
             fill="#fbbebe"
             id="circle289"
             rx="30.197731"
             ry="26.230265"
             style="stroke-width:0.61183" />
          <path
             d="m 1802.1442,665.5635 -2.4814,-13.05811 c -1.2539,-6.55186 -2.5471,-13.22918 -6.0527,-19.13099 -2.3042,-3.86611 -5.9608,-7.54975 -10.8909,-8.31385 a 10.536382,9.1520814 0 0 1 -2.8359,-0.57022 c -1.4443,-0.60444 -2.232,-1.96157 -3.3415,-2.96516 -2.8622,-2.57741 -7.5231,-2.61733 -11.3569,-3.92884 -3.3874,-1.14045 -6.1578,-3.33581 -9.2432,-5.01226 -3.0854,-1.67646 -6.9258,-2.85112 -10.3394,-1.7791 -0.5515,5.1035 -1.1357,10.32104 -3.6303,14.96836 a 25.786237,22.398365 0 0 1 -38.9026,8.41649 c -5.8491,-3.82619 -9.5976,-9.728 -11.3438,-15.90352 -0.4267,-1.50539 -0.9125,-3.23317 -2.5077,-3.92314 -1.7266,-0.75269 -3.801,0.15967 -5.2518,1.2659 -2.6259,2.0471 -4.7726,4.97805 -8.2256,5.66802 -1.2473,0.2509 -2.6259,0.19958 -3.6631,0.85533 a 8.3371998,7.2418339 0 0 0 -1.7069,1.92165 7.8776691,6.8426777 0 0 1 -6.7157,2.88533 c -1.2013,-0.0513 -2.6259,-0.29081 -3.4465,0.46759 -0.6105,0.57022 -0.6564,1.45977 -1.3129,1.99008 -0.8862,0.74699 -2.3239,0.38204 -3.5581,0.34213 -2.337,-0.0855 -4.5099,1.21457 -5.8491,2.85111 -1.3393,1.63655 -1.9695,3.66084 -2.6259,5.6224 7.1752,13.87924 13.7399,27.77557 20.9152,41.65481 a 4.0898232,3.5524902 0 0 1 0.5186,1.71066 4.7988134,4.1683312 0 0 1 -0.8928,1.71067 c -3.5187,4.90963 -3.4071,11.08514 -3.0198,16.8558 0.3873,5.77066 0.86,11.86634 -2.1073,17.03827 -0.8074,1.41985 -1.8578,2.71996 -2.6259,4.13982 -1.7987,3.21606 -2.4486,13.50288 -1.3982,16.95843 h 148.4152 c -2.8294,-6.75714 -1.7527,-20.31705 -1.1619,-27.49045 0.4136,-5.01797 -0.6565,-10.03023 -1.116,-15.04819 -1.0044,-10.24691 -0.2954,-19.96922 -2.2452,-30.19902 z"
             fill="#00cdac"
             id="path291"
             style="stroke-width:0.61183" />
          <path
             d="m 1635.4922,680.50335 a 23.239124,20.185899 0 0 0 -0.079,4.97804 l 1.884,23.53311 c 0.1773,2.21817 0.3545,4.43064 0.5909,6.6431 0.4529,4.29378 1.1291,8.55335 1.9694,12.80721 a 2.6258897,2.2808926 0 0 0 2.6915,2.21817 c 8.3044,1.5282 16.8845,1.46548 25.3595,1.04921 12.9325,-0.62724 25.8454,-2.0585 38.7976,-1.81331 3.3348,0.0627 7.2212,0 9.2431,-2.28089 2.0219,-2.28089 0.8468,-5.97024 -1.7922,-7.81206 -2.639,-1.84182 -6.2233,-2.28089 -9.6107,-2.28089 -4.4837,-0.0399 -8.9674,0.5132 -13.438,0.28511 -4.103,-0.21098 -8.114,-1.07202 -12.0923,-1.93305 l -11.16,-2.41205 c 0.4267,-2.93665 1.7134,-5.70223 2.9345,-8.49062 2.1926,-4.94383 4.2408,-10.05303 4.2802,-15.35041 0.039,-5.29737 -2.2583,-10.86845 -7.2541,-13.90204 -4.1095,-2.49187 -9.4007,-2.95375 -14.4095,-2.85111 -3.6435,0.0912 -9.939,-0.66716 -13.2673,0.57022 -2.6325,1.00359 -4.1555,4.80128 -4.6479,7.04226 z"
             fill="#fbbebe"
             id="path293"
             style="stroke-width:0.61183" />
          <path
             d="m 1809.7396,734.3096 c 2.1861,-0.72418 4.5953,-0.46188 6.9389,-0.18817 7.5429,0.89525 15.1974,1.81331 22.1888,4.43063 3.2824,1.22028 6.4072,2.85112 8.6261,5.25176 1.9694,2.16114 3.1182,4.80698 4.208,7.4129 l 2.5208,5.99875 c 0.9585,2.28089 1.93,4.6074 2.1992,7.03085 0.7878,7.17911 -4.8645,13.94765 -11.9741,17.67688 -7.1096,3.7293 -15.4796,5.0579 -23.633,6.4493 -8.1534,1.3913 -16.3396,2.9309 -24.4601,4.5617 a 98.470864,85.533471 0 0 1 -11.508,1.9673 c -8.6917,0.8554 -17.7773,-0.4048 -26.0357,2.0927 -3.2824,0.9979 -6.5056,2.4805 -9.9127,3.1705 a 61.662455,53.56106 0 0 1 -6.8536,0.9066 l -15.6306,1.551 a 85.269203,74.066284 0 0 1 -9.5845,0.6387 c -6.8273,0 -13.543,-1.4028 -20.1734,-2.8055 a 5.1007907,4.4306338 0 0 1 -1.9694,-0.69 c -1.0504,-0.7185 -1.2801,-1.9901 -1.4311,-3.1419 q -1.0044,-7.6467 -1.7594,-15.3105 c -0.1575,-1.6593 -0.2757,-3.45556 0.7681,-4.8526 1.3129,-1.71067 3.8732,-2.24668 6.2102,-2.57741 a 162.06991,140.77669 0 0 1 29.9877,-1.80761 c 3.8141,-3.313 10.1031,-3.3301 15.0989,-5.13201 a 44.896149,38.997561 0 0 0 5.3239,-2.51468 69.586077,60.443653 0 0 1 29.2328,-8.02304 27.210782,23.635749 0 0 0 5.9804,-0.74129 c 3.8666,-1.04351 7.3919,-3.88322 11.3636,-3.18755 0.4923,-1.18036 0.8337,-2.75988 1.9694,-3.5696 0.5645,-0.41626 1.2604,-0.69567 1.779,-1.14044 1.0963,-0.96368 1.1948,-2.48047 1.0307,-3.8262 -0.1641,-1.34573 -0.5318,-2.72567 -0.1313,-4.03718 a 6.426865,5.5824846 0 0 1 0.7287,-1.40845 c 1.9694,-2.95376 4.9432,-4.47055 8.9017,-4.18544 z"
             fill="#464353"
             id="path295"
             style="stroke-width:0.61183" />
          <path
             d="m 1809.7396,734.3096 c 2.1861,-0.72418 4.5953,-0.46188 6.9389,-0.18817 7.5429,0.89525 15.1974,1.81331 22.1888,4.43063 3.2824,1.22028 6.4072,2.85112 8.6261,5.25176 1.9694,2.16114 3.1182,4.80698 4.208,7.4129 l 2.5208,5.99875 c 0.9585,2.28089 1.93,4.6074 2.1992,7.03085 0.7878,7.17911 -4.8645,13.94765 -11.9741,17.67688 -7.1096,3.7293 -15.4796,5.0579 -23.633,6.4493 -8.1534,1.3913 -16.3396,2.9309 -24.4601,4.5617 a 98.470864,85.533471 0 0 1 -11.508,1.9673 c -8.6917,0.8554 -17.7773,-0.4048 -26.0357,2.0927 -3.2824,0.9979 -6.5056,2.4805 -9.9127,3.1705 a 61.662455,53.56106 0 0 1 -6.8536,0.9066 l -15.6306,1.551 a 85.269203,74.066284 0 0 1 -9.5845,0.6387 c -6.8273,0 -13.543,-1.4028 -20.1734,-2.8055 a 5.1007907,4.4306338 0 0 1 -1.9694,-0.69 c -1.0504,-0.7185 -1.2801,-1.9901 -1.4311,-3.1419 q -1.0044,-7.6467 -1.7594,-15.3105 c -0.1575,-1.6593 -0.2757,-3.45556 0.7681,-4.8526 1.3129,-1.71067 3.8732,-2.24668 6.2102,-2.57741 a 162.06991,140.77669 0 0 1 29.9877,-1.80761 c 3.8141,-3.313 10.1031,-3.3301 15.0989,-5.13201 a 44.896149,38.997561 0 0 0 5.3239,-2.51468 69.586077,60.443653 0 0 1 29.2328,-8.02304 27.210782,23.635749 0 0 0 5.9804,-0.74129 c 3.8666,-1.04351 7.3919,-3.88322 11.3636,-3.18755 0.4923,-1.18036 0.8337,-2.75988 1.9694,-3.5696 0.5645,-0.41626 1.2604,-0.69567 1.779,-1.14044 1.0963,-0.96368 1.1948,-2.48047 1.0307,-3.8262 -0.1641,-1.34573 -0.5318,-2.72567 -0.1313,-4.03718 a 6.426865,5.5824846 0 0 1 0.7287,-1.40845 c 1.9694,-2.95376 4.9432,-4.47055 8.9017,-4.18544 z"
             opacity="0.05"
             id="path297"
             style="stroke-width:0.61183" />
          <path
             d="m 1680.6969,800.2901 c -4.0636,4.0885 -7.6414,5.5483 -14.0026,5.4171 q -5.8689,-0.1197 -11.7246,-0.5303 a 65.778537,57.136359 0 0 0 -8.0352,-0.325 c -8.1009,0.2737 -15.9195,3.4955 -24.0007,2.931 a 17.015765,14.780184 0 0 1 -3.5252,-0.5703 10.260664,8.9125877 0 0 1 -4.7857,-2.5204 c -1.5493,-1.5224 -2.2911,-3.541 -2.7178,-5.5368 -2.1598,-10.2298 3.7616,-21.37199 14.1273,-26.57812 a 10.359135,8.9981212 0 0 1 4.4903,-1.38565 10.641418,9.2433171 0 0 1 4.5428,0.86674 l 0.098,0.0342 a 34.353202,29.839777 0 0 1 11.252,6.52335 6.3415236,5.5083556 0 0 0 1.7199,1.20318 5.9082518,5.1320083 0 0 0 2.0285,0.3307 l 8.6261,0.4733 a 20.442551,17.756749 0 0 1 4.3327,0.5189 34.438543,29.913906 0 0 1 4.5559,1.7107 c 4.6413,1.8019 9.788,2.2809 14.8035,2.9765 a 2.2123121,1.921652 0 0 1 1.3129,0.4562 2.0547587,1.7847984 0 0 1 0.407,0.7413 16.746612,14.546392 0 0 1 -3.5055,13.2634 z"
             fill="#3f3d56"
             id="path299"
             style="stroke-width:0.61183" />
          <path
             d="m 1635.1639,772.09829 a 51.795674,44.990606 0 0 0 -8.6326,9.37451 54.014551,46.91796 0 0 0 -7.0505,18.555 39.650934,34.441478 0 0 0 -0.072,7.1905 10.260664,8.9125877 0 0 1 -4.7857,-2.5203 c -1.5493,-1.5225 -2.2911,-3.5411 -2.7178,-5.5369 -2.1598,-10.2298 3.7616,-21.37198 14.1273,-26.57812 a 10.359135,8.9981212 0 0 1 4.4903,-1.38564 10.641418,9.2433171 0 0 1 4.5428,0.86674 z"
             opacity="0.1"
             id="path301"
             style="stroke-width:0.61183" />
          <path
             d="m 1674.7164,740.04605 c 0,0.57022 -1.0307,0 -1.1226,-0.61014 -0.7221,-4.61311 -4.9367,-8.4165 -9.8471,-10.26402 -4.9104,-1.84752 -10.5035,-1.94446 -15.821,-1.50539 -8.0417,0.66146 -17.0682,3.33581 -20.0092,9.86486 -0.6959,1.5282 -1.011,3.18185 -1.8644,4.64732 -0.9453,1.60803 -2.488,2.89103 -3.5121,4.45344 -1.766,2.70286 -1.8382,6.01586 -1.2014,9.07225 1.7134,8.1542 8.1337,15.12802 15.9129,19.95781 7.7792,4.82982 16.8713,7.71512 25.9372,10.31532 a 449.80834,390.71119 0 0 0 73.5249,15.2535 c 4.0439,0.5303 8.1272,1.0207 12.0004,2.1497 3.4661,1.0093 6.7091,2.5204 10.0965,3.7065 7.8777,2.7485 16.3527,3.7292 24.749,4.6929 1.4311,0.1597 3.0723,0.2737 4.1292,-0.5702 1.3655,-1.1005 0.9125,-3.0165 0.5252,-4.596 a 28.45808,24.719173 0 0 1 3.3546,-17.5401 c 1.4048,-2.0528 3.2298,-4.1569 2.9672,-6.5347 -0.3151,-2.7713 -3.4924,-4.73288 -6.6566,-5.17765 -3.1642,-0.44477 -6.3809,0.21098 -9.5582,0.57022 -1.0963,0.12545 -2.2911,0.20528 -3.2496,-0.27941 a 6.4925123,5.6395069 0 0 1 -1.2735,-0.98078 14.39644,12.504994 0 0 0 -16.7663,-2.0357 c -1.1751,0.57023 -2.9542,-0.70137 -4.1752,-1.18036 l -13.8056,-5.42852 c -15.8604,-6.23254 -31.7995,-12.49359 -48.579,-16.43954 a 10.201581,8.8612676 0 0 1 -3.7419,-1.35143 c -0.8337,-0.57022 -1.4311,-1.34572 -2.1992,-1.97867 -1.674,-1.37424 -4.0044,-1.92165 -6.0132,-2.89673 -2.0088,-0.97509 -4.2605,-3.35862 -3.801,-5.31448 z"
             fill="#464353"
             id="path305"
             style="stroke-width:0.61183" />
          <path
             d="m 1646.4881,638.65467 a 6.7944896,5.9018095 0 0 0 -1.4574,2.02429 110.19546,95.717657 0 0 0 -9.2563,32.85626 3.7812812,3.2844853 0 0 1 -0.4267,1.59092 8.0155283,6.9624246 0 0 1 -0.965,0.90666 3.6237278,3.1476317 0 0 0 0.6171,4.56178 c 1.0832,-1.77339 3.6763,-2.34932 5.9805,-2.50328 11.0353,-0.75839 21.8145,3.70075 32.8827,3.36432 -0.7812,-2.34362 -1.9038,-4.596 -2.5406,-6.96813 -2.8162,-10.53202 4.208,-21.99921 -0.099,-32.14348 -0.86,-2.02999 -2.2976,-4.02577 -4.5625,-4.91532 a 12.151305,10.55483 0 0 0 -2.9213,-0.67286 c -2.7965,-0.43907 -8.3634,-2.31511 -11.0681,-1.56241 -0.9978,0.2794 -1.3917,1.09482 -2.2189,1.58522 -1.2538,0.70137 -2.9213,0.95797 -3.9651,1.87603 z"
             fill="#00cdac"
             id="path311"
             style="stroke-width:0.61183" />
          <rect
             x="1669.7665"
             y="659.41077"
             width="146.39336"
             height="80.971687"
             rx="5.2320852"
             fill="#3f3d56"
             id="rect313"
             style="stroke-width:0.61183" />
          <circle
             cx="1742.6349"
             cy="699.89661"
             fill="#ffffff"
             id="circle315"
             rx="3.9388347"
             ry="3.4213388"
             style="stroke-width:0.61183" />
          <g
             opacity="0.1"
             id="g325"
             transform="matrix(0.65647242,0,0,0.57022314,1725.1137,513.81002)">
            <path
               d="m 198.72,364.11 c -0.51,-3.05 -3,-5.42 -4.35,-8.22 a 16.45,16.45 0 0 1 -1.48,-6 c 0,1.12 -0.1,2.24 -0.11,3.37 0,3.28 0.14,6.66 1.59,9.64 1.11,2.27 2.94,4.27 3.86,6.58 a 15.06,15.06 0 0 0 0.49,-5.37 z"
               transform="translate(-80.89,-103.35)"
               id="path321" />
            <path
               d="m 317.14,342.83 c -1.82,8.72 -4.66,17.6 -3.78,26.34 0.57,-6.45 2.45,-12.94 3.78,-19.34 a 51,51 0 0 0 1.16,-14.83 61.14,61.14 0 0 1 -1.16,7.83 z"
               transform="translate(-80.89,-103.35)"
               id="path323" />
          </g>
          <g
             opacity="0.1"
             id="g365"
             transform="matrix(0.65647242,0,0,0.57022314,1592.5851,426.3834)">
            <path
               d="m 167.24,402.71 c 0,0 -74.77,-31.44 -84.57,25.29 0,0 -5.11,8.84 2,16.14 0,0 1.53,-3.92 8.75,0.13 a 37.17,37.17 0 0 0 8.16,3.32 18.36,18.36 0 0 0 11.62,-0.62 v 0 c 0,0 24.59,-1.33 45.27,-33.5 0,0 8.87,-5.48 9.31,-7.54 l -14.82,1 c 0,0 1.14,10.85 -5,17.36 0,0 5.44,-16.84 2.83,-17.31 -0.53,-0.1 -7.83,0.86 -7.83,0.86 0,0 1.89,18.87 -8,28.63 0,0 9.18,-19.19 5.19,-28.29 l -10.94,2.11 c 0,0 3,19.85 -7.82,31.39 0,0 8.9,-20.4 5.46,-30.76 l -10.47,3.52 c 0,0 2.52,19.41 -6.53,29 0,0 7.9,-24.61 4.18,-28 0,0 -9.42,3.82 -11.43,6 0,0 1.49,14 -4.26,19.05 0,0 3.53,-17 1.78,-17.7 0,0 -10.94,8.24 -14.28,15.35 0,0 4.16,-10.86 12.91,-17 0,0 -7.35,-1.24 -13,1.83 0,0 3.78,-7.21 15.65,-3.79 0,0 8.79,-6.09 10.55,-6 0,0 -11.23,-5 -19.34,-4.38 0,0 8.7,-5 22.08,3.35 l 10.45,-3.77 c 0,0 -14.5,-7.43 -21.76,-7.4 0,0 9.66,-3.74 24.47,6.66 l 10.7,-2.18 c 0,0 -12,-7.35 -20.09,-9.06 0,0 9.7,-1.54 23.18,8.55 l 7.31,-0.61 c 0,0 -8.85,-5.22 -11.53,-6.49 -2.68,-1.27 -2.56,-2.09 -2.56,-2.09 a 34.89,34.89 0 0 1 17.14,8.18 c 0,0 15.18,-0.3 15.24,-1.23 z"
               transform="translate(-80.89,-103.35)"
               fill="#00cdac"
               id="path363" />
          </g>
          <g
             opacity="0.1"
             id="g369"
             transform="matrix(0.65647242,0,0,0.57022314,1592.5851,426.3834)">
            <path
               d="m 164.48,346.35 c 0,0 -26.48,-61.27 -64.63,-33.17 0,0 -8.06,2.34 -8,10.7 0,0 3.14,-1.46 5.13,5.07 a 30.1,30.1 0 0 0 3,6.61 15,15 0 0 0 7.25,6.25 v 0 c 0,0 15.37,13.22 46,5.89 0,0 8.4,1.79 9.83,0.83 l -9.36,-7.87 c 0,0 -5.51,7.1 -12.89,7.44 0,0 12.83,-6.9 11.55,-8.67 -0.26,-0.36 -5.15,-3.94 -5.15,-3.94 0,0 -9.62,12.28 -21,12.47 0,0 16.39,-6.18 19.2,-13.85 l -7.7,-5 c 0,0 -9.71,13.51 -22.71,14.21 0,0 16.91,-7.05 20.77,-15.17 l -8.23,-3.87 c 0,0 -9.56,13 -20.37,13.49 0,0 18.72,-10.12 18.43,-14.25 0,0 -7.77,-3.1 -10.24,-2.92 0,0 -7.07,9.15 -13.38,8.89 0,0 11.79,-8.09 11.15,-9.5 0,0 -11.2,-1.34 -17.23,1 0,0 8.66,-4.08 17.35,-2.74 0,0 -3.66,-4.93 -8.75,-6.3 0,0 6.36,-2.13 11.46,6.65 0,0 8.68,1.4 9.7,2.44 0,0 -3.81,-9.39 -9,-13.62 0,0 8,2 11.2,14.57 l 8.36,3.71 c 0,0 -4.38,-12.68 -8.72,-16.79 0,0 7.87,3.28 10.75,17.9 l 7.6,4.79 c 0,0 -2.94,-11.2 -6.77,-16.83 0,0 6.64,4.62 8.89,18.29 l 4.7,3.8 c 0,0 -2.29,-8.14 -3.16,-10.42 -0.87,-2.28 -0.33,-2.7 -0.33,-2.7 a 28.65,28.65 0 0 1 5.49,14.68 c 0,0 9.24,8.44 9.81,7.93 z"
               transform="translate(-80.89,-103.35)"
               fill="#00cdac"
               id="path367" />
          </g>
        </g>
      </g>
    </g>
    <path
       d="m 154.83899,151.96254 1.48612,-0.61518 c 0,0 -3.10733,-3.53725 -7.43062,-3.22965 l 1.21595,-1.38416 c 0,0 -2.97225,-1.23034 -5.67428,1.99932 -1.42041,1.69776 -3.06384,3.69338 -4.08834,5.94144 h -1.59154 l 0.66425,1.5123 -2.32487,1.5123 2.38625,-0.27165 a 6.7036634,7.63116 0 0 0 0.2257,3.91669 l 0.54039,1.69171 c 0,0 2.16165,-4.92139 2.16165,-5.53657 v 1.53794 c 0,0 1.48613,-1.38415 1.48613,-2.3069 l 0.8106,1.07655 0.4053,-1.69174 4.99877,1.69174 -0.81061,-1.38413 3.10734,0.46138 -1.21595,-1.69174 c 0,0 3.51264,1.99932 3.64777,3.69105 0.13512,1.69175 1.0625,3.89695 1.0625,3.89695 l 1.12432,-1.49319 c 0,0 1.73111,-7.01756 -2.18683,-9.32446 z"
       fill="#2f2e41"
       id="path207"
       style="stroke-width:0.3429" />
  </g>
</svg>
