<?xml version="1.0" encoding="UTF-8" standalone="no"?>
<svg
   xmlns:dc="http://purl.org/dc/elements/1.1/"
   xmlns:cc="http://creativecommons.org/ns#"
   xmlns:rdf="http://www.w3.org/1999/02/22-rdf-syntax-ns#"
   xmlns:svg="http://www.w3.org/2000/svg"
   xmlns="http://www.w3.org/2000/svg"
   xmlns:sodipodi="http://sodipodi.sourceforge.net/DTD/sodipodi-0.dtd"
   xmlns:inkscape="http://www.inkscape.org/namespaces/inkscape"
   width="210mm"
   height="297mm"
   viewBox="0 0 210 297"
   version="1.1"
   id="svg8"
   sodipodi:docname="me2.svg"
   inkscape:version="1.0.1 (c497b03c, 2020-09-10)">
  <defs
     id="defs2">
    <linearGradient
       id="be976a09-f639-4984-bf14-ee296c482822"
       x1="320.96"
       y1="796.01"
       x2="320.96"
       y2="284.81"
       gradientUnits="userSpaceOnUse"
       gradientTransform="matrix(0.65647242,0,0,0.57022314,1539.4831,367.45084)">
      <stop
         offset="0"
         stop-color="gray"
         stop-opacity="0.25"
         id="stop264" />
      <stop
         offset="0.54"
         stop-color="gray"
         stop-opacity="0.12"
         id="stop266" />
      <stop
         offset="1"
         stop-color="gray"
         stop-opacity="0.1"
         id="stop268" />
    </linearGradient>
  </defs>
  <sodipodi:namedview
     id="base"
     pagecolor="#ffffff"
     bordercolor="#666666"
     borderopacity="1.0"
     inkscape:pageopacity="0.0"
     inkscape:pageshadow="2"
     inkscape:zoom="0.39537797"
     inkscape:cx="-124.57628"
     inkscape:cy="605.93121"
     inkscape:document-units="mm"
     inkscape:current-layer="layer1"
     inkscape:document-rotation="0"
     showgrid="false"
     inkscape:window-width="1252"
     inkscape:window-height="772"
     inkscape:window-x="88"
     inkscape:window-y="25"
     inkscape:window-maximized="0" />
  <metadata
     id="metadata5">
    <rdf:RDF>
      <cc:Work
         rdf:about="">
        <dc:format>image/svg+xml</dc:format>
        <dc:type
           rdf:resource="http://purl.org/dc/dcmitype/StillImage" />
        <dc:title></dc:title>
      </cc:Work>
    </rdf:RDF>
  </metadata>
  <g
     inkscape:label="Layer 1"
     inkscape:groupmode="layer"
     id="layer1">
    <g
       inkscape:label="Layer 1"
       id="layer1-8"
       transform="translate(-12.501177,-12.766745)">
      <g
         id="g128"
         transform="matrix(0.26458333,0,0,0.26458333,7.8263476,66.159812)">
        <rect
           style="fill:#fbbebe;fill-opacity:1"
           id="rect1060"
           width="824.52747"
           height="730.94617"
           x="-854.91406"
           y="-120.86536" />
      </g>
    </g>
    <path
       d="m -160.59976,129.77625 c -0.44872,-0.004 -0.9026,-0.007 -1.34836,-0.0208 l 0.0138,-0.45779 c 0.44114,0.0139 0.89228,0.0201 1.33463,0.0206 0.44433,0 0.89712,-0.007 1.34627,-0.0222 l 0.0145,0.45758 c -0.4541,0.015 -0.91183,0.0226 -1.36088,0.0226 z m -4.05165,-0.19345 c -0.89524,-0.0863 -1.79938,-0.20329 -2.68716,-0.34754 l 0.0709,-0.45221 c 0.87834,0.14269 1.77282,0.25854 2.65862,0.34398 z m 8.11551,-0.005 -0.0428,-0.45578 c 0.88548,-0.0863 1.77984,-0.2033 2.65818,-0.34732 l 0.0716,0.45221 c -0.8879,0.14559 -1.79192,0.26367 -2.68695,0.35089 z m -13.46261,-0.86528 c -0.87658,-0.20239 -1.75854,-0.43677 -2.62129,-0.69642 l 0.12747,-0.43924 c 0.85353,0.25697 1.72605,0.48866 2.59329,0.68882 z m 18.80872,-0.0114 -0.0999,-0.44639 c 0.86922,-0.20195 1.74152,-0.43477 2.59252,-0.69218 l 0.12802,0.43924 c -0.86023,0.26009 -1.74197,0.49537 -2.62064,0.69933 z m -24.00211,-1.55186 c -0.84584,-0.31646 -1.69211,-0.66489 -2.51534,-1.03592 l 0.18204,-0.41866 c 0.81433,0.36677 1.65149,0.71163 2.48833,1.02473 z m 29.19352,-0.0179 -0.15546,-0.42985 c 0.83167,-0.31198 1.66598,-0.65662 2.47965,-1.02429 l 0.18248,0.41866 c -0.82268,0.37171 -1.666,0.72014 -2.50668,1.03548 z m -34.1525,-2.21676 c -0.79599,-0.42313 -1.59089,-0.87937 -2.3624,-1.35572 l 0.2332,-0.39183 c 0.76338,0.47167 1.54971,0.92276 2.33725,1.34142 z m 39.096,-0.0168 -0.20816,-0.40591 c 0.78567,-0.41844 1.57025,-0.86953 2.33155,-1.34075 l 0.23363,0.39138 c -0.76965,0.47636 -1.56257,0.93214 -2.35702,1.35528 z m -43.73001,-2.84587 c -0.73725,-0.524 -1.46792,-1.07976 -2.17191,-1.65139 l 0.28041,-0.35827 c 0.69652,0.56581 1.41951,1.11553 2.14885,1.63394 z m 48.35489,-0.0163 -0.25779,-0.37527 c 0.72924,-0.51908 1.45123,-1.0688 2.146,-1.63394 l 0.28063,0.35783 c -0.70223,0.57118 -1.43191,1.12671 -2.16884,1.65138 z m -52.59056,-3.42443 c -0.66644,-0.61614 -1.32168,-1.2618 -1.94717,-1.91864 l 0.32279,-0.31892 c 0.6189,0.64991 1.26722,1.28865 1.92675,1.89851 z m 56.82107,-0.0159 -0.30258,-0.33904 c 0.65787,-0.60853 1.30565,-1.24771 1.92553,-1.89919 l 0.32279,0.31847 c -0.62625,0.65863 -1.28105,1.30452 -1.94574,1.91976 z m -60.59122,-3.94328 c -0.58355,-0.69689 -1.15249,-1.42171 -1.69124,-2.15437 l 0.36001,-0.27463 c 0.53304,0.72505 1.09593,1.44228 1.67334,2.13155 z m 64.35951,-0.019 -0.34211,-0.297 c 0.57729,-0.68994 1.1403,-1.40806 1.67323,-2.13401 l 0.36012,0.27419 c -0.53864,0.73377 -1.10759,1.4595 -1.69124,2.15682 z m -67.60332,-4.39506 c -0.49199,-0.76732 -0.96541,-1.55969 -1.40721,-2.35519 l 0.39152,-0.22544 c 0.43697,0.787 0.90545,1.5711 1.39227,2.33015 z m 70.84768,-0.0248 -0.37681,-0.25003 c 0.48704,-0.76062 0.95541,-1.54606 1.39261,-2.33484 l 0.39174,0.22498 c -0.4418,0.7975 -0.91545,1.59145 -1.40754,2.35989 z m -73.51069,-4.77211 c -0.3913,-0.82435 -0.76098,-1.67152 -1.09869,-2.51823 l 0.41655,-0.17222 c 0.33421,0.83732 0.69992,1.67554 1.08705,2.49096 z m 76.17447,-0.0358 -0.4049,-0.19905 c 0.3869,-0.81674 0.75273,-1.65719 1.08738,-2.49854 l 0.41677,0.17176 c -0.33817,0.85052 -0.70794,1.70036 -1.09925,2.52583 z m -78.21189,-5.07067 c -0.28447,-0.869976 -0.54435,-1.759852 -0.77249,-2.645034 l 0.43499,-0.116295 c 0.22563,0.875564 0.48276,1.756058 0.76415,2.616409 z m 80.24809,-0.0485 -0.42687,-0.14403 c 0.27975,-0.85946 0.53601,-1.740168 0.76108,-2.617521 l 0.43522,0.115845 c -0.22771,0.886978 -0.4866,1.777074 -0.76943,2.645706 z m -81.62389,-5.286036 c -0.17183,-0.898602 -0.31719,-1.81487 -0.43215,-2.723534 l 0.44598,-0.05859 c 0.11374,0.899049 0.25757,1.805477 0.42753,2.694461 z m 82.99344,-0.05032 -0.44136,-0.08677 c 0.16864,-0.888759 0.31159,-1.795637 0.42423,-2.695355 l 0.4462,0.05815 c -0.11396,0.909325 -0.25845,1.825815 -0.42907,2.723973 z m -83.68557,-5.419114 c -0.0576,-0.912916 -0.0874,-1.840812 -0.0884,-2.757982 l 0.44971,-5.29e-4 c 8e-4,0.907544 0.0304,1.825604 0.0875,2.728896 z m 84.37155,-0.05122 -0.44883,-0.02907 c 0.056,-0.902401 0.0843,-1.820461 0.0843,-2.72823 l -2.2e-4,-0.100415 h 0.44971 l 2.2e-4,0.09885 c 0,0.918954 -0.0288,1.846625 -0.0852,2.758866 z m -83.92898,-5.435658 -0.44883,-0.02817 c 0.0558,-0.914702 0.14108,-1.838796 0.25362,-2.746791 l 0.44619,0.05725 c -0.11144,0.898588 -0.19586,1.812845 -0.25098,2.717707 z m 83.47401,-0.150289 c -0.0584,-0.905309 -0.14603,-1.819343 -0.26043,-2.716598 l 0.44576,-0.05905 c 0.11572,0.906883 0.20443,1.830525 0.26349,2.745674 z m -82.80186,-5.262784 -0.44158,-0.08655 c 0.16963,-0.898935 0.37056,-1.804355 0.59694,-2.691108 l 0.43521,0.115175 c -0.22398,0.877361 -0.4227,1.773053 -0.59057,2.662483 z m 82.11039,-0.147712 c -0.17128,-0.889878 -0.37329,-1.7849 -0.59991,-2.660353 l 0.43477,-0.11674 c 0.22925,0.884846 0.43325,1.789491 0.6065,2.688979 z m -80.7616,-5.132961 -0.42709,-0.14359 c 0.28228,-0.870312 0.5965,-1.743305 0.93411,-2.594827 l 0.417,0.17153 c -0.33399,0.84237 -0.64482,1.70597 -0.92402,2.566887 z m 79.3949,-0.142799 c -0.28238,-0.859684 -0.59573,-1.720826 -0.93147,-2.5596 l 0.41633,-0.172879 c 0.33947,0.847834 0.65633,1.718255 0.94157,2.587112 z m -77.38614,-4.924419 -0.40535,-0.198594 c 0.39009,-0.825918 0.81191,-1.650043 1.25361,-2.449347 l 0.39195,0.224763 c -0.43708,0.790701 -0.85429,1.605994 -1.24021,2.423178 z m 75.36487,-0.124905 c -0.38735,-0.813281 -0.80611,-1.625552 -1.24527,-2.414235 l 0.3913,-0.22588 c 0.44378,0.797066 0.86714,1.618173 1.25844,2.4404 z m -72.73469,-4.635004 -0.37702,-0.24981 c 0.49044,-0.767768 1.01207,-1.529834 1.55026,-2.264839 l 0.36056,0.273738 c -0.53249,0.727289 -1.04863,1.481193 -1.5338,2.240911 z m 70.0944,-0.107798 c -0.4866,-0.75692 -1.00415,-1.508477 -1.53862,-2.233752 l 0.35968,-0.274857 c 0.54017,0.733102 1.06344,1.49271 1.55532,2.257681 z m -66.88979,-4.269023 -0.34254,-0.29655 c 0.58244,-0.697881 1.19475,-1.385808 1.81991,-2.044552 l 0.32345,0.318246 c -0.61857,0.651809 -1.2244,1.332469 -1.80082,2.022856 z m 63.6753,-0.09438 c -0.57817,-0.688489 -1.18598,-1.367134 -1.80608,-2.017044 l 0.32235,-0.319137 c 0.62691,0.656727 1.24109,1.342644 1.8254,2.038511 z m -59.95125,-3.830236 -0.30281,-0.338595 c 0.66545,-0.617368 1.35846,-1.2202 2.05959,-1.79161 l 0.28107,0.357608 c -0.69378,0.56537 -1.37943,1.161828 -2.03785,1.772597 z m 56.21612,-0.08308 c -0.65941,-0.607975 -1.34693,-1.202645 -2.04389,-1.767345 l 0.28019,-0.3585 c 0.70421,0.570849 1.39919,1.171782 2.06541,1.786356 z m -52.03413,-3.326029 -0.25801,-0.375049 c 0.73582,-0.525228 1.49822,-1.033013 2.266,-1.509372 l 0.23397,0.391152 c -0.75955,0.471329 -1.51394,0.973746 -2.24196,1.493269 z m 47.83964,-0.07291 c -0.7321,-0.518964 -1.48879,-1.019701 -2.24921,-1.488342 l 0.23276,-0.391824 c 0.76856,0.473565 1.53358,0.97967 2.27336,1.504228 z m -43.26746,-2.764009 -0.20883,-0.405691 c 0.79501,-0.424698 1.6145,-0.828823 2.43541,-1.201079 l 0.18291,0.418436 c -0.81223,0.368232 -1.62283,0.768107 -2.40949,1.188334 z m 38.67945,-0.06285 c -0.78974,-0.418661 -1.60352,-0.816637 -2.41894,-1.182963 l 0.18159,-0.419108 c 0.82409,0.370242 1.64678,0.772575 2.44507,1.19571 z m -33.7914,-2.152907 -0.15612,-0.429625 c 0.8432,-0.317685 1.70781,-0.611553 2.5699,-0.873329 l 0.12846,0.439015 c -0.85286,0.258863 -1.70815,0.549609 -2.54223,0.863939 z m 28.88292,-0.052 c -0.83585,-0.311423 -1.69223,-0.59903 -2.54531,-0.854654 l 0.12692,-0.439473 c 0.86231,0.258421 1.72802,0.549169 2.57298,0.86406 z m -23.74903,-1.506913 -0.10035,-0.446389 c 0.87493,-0.20419 1.76941,-0.382096 2.65861,-0.529143 l 0.072,0.452207 c -0.87977,0.145368 -1.76469,0.321376 -2.63029,0.523325 z m 18.60955,-0.03332 c -0.86714,-0.199044 -1.75272,-0.371914 -2.63216,-0.513935 l 0.0705,-0.452432 c 0.88888,0.143579 1.78401,0.318357 2.66048,0.519523 z m -13.32141,-0.840566 -0.0435,-0.455787 c 0.89283,-0.08823 1.80224,-0.1485 2.70287,-0.179027 l 0.0149,0.457792 c -0.89118,0.03021 -1.79093,0.0898 -2.67432,0.177022 z m 8.0302,-0.01421 c -0.88471,-0.0842 -1.78478,-0.140557 -2.67487,-0.167507 l 0.0134,-0.457793 c 0.89952,0.02728 1.80915,0.0842 2.7033,0.169296 z"
       fill="#d0cde1"
       id="path42"
       style="stroke-width:0.226923" />
    <ellipse
       cx="-162.19272"
       cy="44.813122"
       fill="#00cdac"
       id="circle44"
       rx="10.568156"
       ry="10.763523"
       style="stroke-width:0.226923" />
    <ellipse
       cx="-121.26923"
       cy="74.126549"
       fill="#00cdac"
       id="circle46"
       rx="10.568156"
       ry="10.763523"
       style="stroke-width:0.226923" />
    <ellipse
       cx="-134.08594"
       cy="119.01273"
       fill="#00cdac"
       id="circle48"
       rx="10.568156"
       ry="10.763523"
       style="stroke-width:0.226923" />
    <ellipse
       cx="-184.90303"
       cy="120.84482"
       fill="#00cdac"
       id="circle50"
       rx="10.568156"
       ry="10.763523"
       style="stroke-width:0.226923" />
    <ellipse
       cx="-200.19312"
       cy="74.126549"
       fill="#00cdac"
       id="circle52"
       rx="10.568156"
       ry="10.763523"
       style="stroke-width:0.226923" />
    <path
       d="m -157.66395,43.954986 h -3.68622 a 1.263848,1.2872121 0 0 1 -1.26384,-1.287211 v -3.754372 a 0.1053173,0.10726424 0 0 0 -0.10532,-0.107267 h -2.42238 a 1.6851307,1.7162827 0 0 0 -1.68513,1.716281 v 8.581408 a 1.6851307,1.7162827 0 0 0 1.68513,1.716284 h 5.89797 a 1.6851307,1.7162827 0 0 0 1.68512,-1.716284 v -5.041577 a 0.10531955,0.10726653 0 0 0 -0.10533,-0.107262 z m -2.42237,4.2907 h -4.21283 a 0.42128281,0.42907082 0 1 1 0,-0.858141 h 4.21283 a 0.42128281,0.42907082 0 0 1 0,0.858141 z m 0,-2.145352 h -4.21283 a 0.42128299,0.429071 0 1 1 0,-0.858142 h 4.21283 a 0.42128299,0.429071 0 1 1 0,0.858142 z"
       fill="#ffffff"
       id="path54"
       style="stroke-width:0.226923" />
    <path
       d="m -157.89513,43.005394 -3.78654,-3.856549 a 0.0526609,0.05363441 0 0 0 -0.0898,0.03781 v 3.481105 a 0.42128267,0.42907069 0 0 0 0.42128,0.429069 h 3.41792 a 0.0526609,0.05363441 0 0 0 0.0371,-0.09145 z"
       fill="#ffffff"
       id="path56"
       style="stroke-width:0.226923" />
    <path
       d="m -132.55738,116.89238 a 0.56006954,0.57042322 0 1 0 0.39618,0.16692 0.56006505,0.57041864 0 0 0 -0.39618,-0.16692 z"
       fill="#ffffff"
       id="path58"
       style="stroke-width:0.226923" />
    <path
       d="m -129.43934,114.61133 v -0.002 a 0.42807778,0.43599139 0 0 0 -0.3175,-0.32699 c -0.62532,-0.15538 -1.60906,0.0103 -2.69919,0.4548 a 8.6809801,8.8414605 0 0 0 -2.82405,1.82132 6.72964,6.8540468 0 0 0 -0.62008,0.72302 2.7503829,2.8012276 0 0 0 -1.22906,0.20111 c -1.21162,0.54306 -1.55765,1.93289 -1.64977,2.50352 a 0.52460776,0.53430587 0 0 0 0.57056,0.61979 h 0.003 l 1.34971,-0.15003 c 0.002,0.0175 0.004,0.0336 0.005,0.0483 a 0.72100907,0.73433794 0 0 0 0.20775,0.44283 l 0.65869,0.6713 a 0.71912929,0.73242341 0 0 0 0.43458,0.2118 l 0.0451,0.005 -0.14689,1.37294 v 0.003 a 0.52460326,0.5343013 0 0 0 0.46786,0.58642 q 0.0242,0.003 0.0486,0.003 a 0.52998179,0.53977926 0 0 0 0.0871,-0.007 c 0.56343,-0.0923 1.9274,-0.44048 2.45914,-1.68113 a 2.7750494,2.82635 0 0 0 0.1983,-1.24685 6.6057991,6.7279167 0 0 0 0.71241,-0.63154 8.6185358,8.7778618 0 0 0 1.79016,-2.8536 c 0.43416,-1.09766 0.59763,-2.10707 0.44885,-2.76832 z m -2.24657,3.73755 a 1.2332386,1.2560368 0 1 1 -8e-4,-1.7763 l 8e-4,7.9e-4 a 1.2233787,1.2459946 0 0 1 0.0131,1.76205 z"
       fill="#ffffff"
       id="path60"
       style="stroke-width:0.226923" />
    <path
       d="m -136.06006,121.80048 a 0.33573458,0.34194112 0 0 0 -0.23083,0.0571 c -0.13408,0.0934 -0.2688,0.18573 -0.40478,0.2757 a 0.31310749,0.31889573 0 0 1 -0.44067,-0.42744 l 0.25496,-0.44881 a 0.33574582,0.34195255 0 0 0 -0.31812,-0.53238 1.2852677,1.3090276 0 0 0 -0.74766,0.37315 c -0.0768,0.0784 -0.31036,0.31653 -0.43606,1.22377 a 7.5104468,7.649288 0 0 0 -0.0676,0.78585 0.33574357,0.34195027 0 0 0 0.32704,0.35061 q 0.004,1.1e-4 0.009,1.1e-4 h 0.008 a 7.5517345,7.691339 0 0 0 0.77222,-0.0684 c 0.89119,-0.12823 1.12496,-0.36632 1.20176,-0.44454 a 1.2693255,1.2927908 0 0 0 0.36491,-0.76384 0.33574582,0.34195255 0 0 0 -0.2923,-0.38085 z"
       fill="#ffffff"
       id="path62"
       style="stroke-width:0.226923" />
    <path
       d="m -188.5401,126.69373 h -0.76569 a 0.57427809,0.58489444 0 0 1 -0.57428,-0.58489 v -3.50935 a 0.57427809,0.58489444 0 0 1 0.57428,-0.58489 h 0.76569 a 0.57427809,0.58489444 0 0 1 0.57428,0.58489 v 3.50935 a 0.57427809,0.58489444 0 0 1 -0.57428,0.58489 z"
       fill="#ffffff"
       id="path64"
       style="stroke-width:0.226923" />
    <path
       d="m -183.1802,126.69373 h -0.7657 a 0.57427809,0.58489444 0 0 1 -0.57428,-0.58489 v -5.84891 a 0.57427809,0.58489444 0 0 1 0.57428,-0.5849 h 0.7657 a 0.57427809,0.58489444 0 0 1 0.57427,0.5849 v 5.84891 a 0.57427809,0.58489444 0 0 1 -0.57427,0.58489 z"
       fill="#ffffff"
       id="path66"
       style="stroke-width:0.226923" />
    <path
       d="m -180.50026,126.69373 h -0.76569 a 0.57427809,0.58489444 0 0 1 -0.57428,-0.58489 v -8.5784 a 0.57427809,0.58489444 0 0 1 0.57428,-0.5849 h 0.76569 a 0.57427809,0.58489444 0 0 1 0.57428,0.5849 v 8.5784 a 0.57427809,0.58489444 0 0 1 -0.57428,0.58489 z"
       fill="#ffffff"
       id="path68"
       style="stroke-width:0.226923" />
    <path
       d="m -185.86015,126.69373 h -0.76569 a 0.57427809,0.58489444 0 0 1 -0.57428,-0.58489 V 115.5808 a 0.57427809,0.58489444 0 0 1 0.57428,-0.58489 h 0.7657 a 0.57427809,0.58489444 0 0 1 0.57428,0.58489 v 10.52804 a 0.57427809,0.58489444 0 0 1 -0.57429,0.58489 z"
       fill="#ffffff"
       id="path70"
       style="stroke-width:0.226923" />
    <path
       d="m -120.76296,73.844658 -0.54705,-0.557376 a 0.67045281,0.68284708 0 0 0 -0.94576,-0.0026 l -3.80337,3.574933 a 0.71029027,0.72342099 0 0 0 -0.2378,0.492078 0.67276431,0.68520132 0 0 0 0.19296,0.510857 l 0.81712,0.841399 0.002,0.0016 a 0.67653513,0.68904183 0 0 0 0.4754,0.201014 h 0.0247 a 0.7035334,0.7165392 0 0 0 0.48546,-0.238358 l 3.53443,-3.856066 a 0.67045731,0.68285166 0 0 0 0.004,-0.96569 z"
       fill="#ffffff"
       id="path72"
       style="stroke-width:0.226923" />
    <path
       d="m -116.36645,72.718168 -0.007,-0.0066 -0.71801,-0.723821 a 0.44962558,0.45793755 0 0 0 -0.32015,-0.133583 0.4586265,0.46710486 0 0 0 -0.26797,0.08834 c 0,-0.0092 0.001,-0.01815 0.002,-0.02603 a 0.76590574,0.7800646 0 0 0 -0.10895,-0.538176 5.4052543,5.5051782 0 0 0 -0.5196,-0.613294 l -0.002,-0.0016 a 5.6713582,5.7762012 0 0 0 -1.81693,-1.193705 2.9237974,2.9778478 0 0 0 -1.11213,-0.222993 2.1194774,2.158659 0 0 0 -1.35663,0.483967 2.5125229,2.5589704 0 0 0 -0.29709,0.346123 0.33522867,0.34142584 0 0 0 0.39075,0.519396 1.5595675,1.5883983 0 0 1 0.17976,-0.05612 1.3295482,1.3541268 0 0 1 0.38656,-0.02453 1.6252205,1.655265 0 0 1 0.74777,0.279326 1.0769423,1.0968511 0 0 1 0.38258,0.876821 2.2347378,2.2760501 0 0 1 -0.41904,0.735772 0.33522642,0.34142354 0 0 0 0.0304,0.448122 l 0.72094,0.734277 a 0.33522867,0.34142584 0 0 0 0.46094,0.01323 c 0.20386,-0.185436 0.51437,-0.464978 0.6229,-0.533476 a 0.78028968,0.79471445 0 0 1 0.30799,-0.123767 0.401853,0.40928184 0 0 1 0.23655,0.05079 0.02598417,0.02646453 0 0 1 -0.007,0.02027 l -0.0381,0.03692 -0.006,0.006 a 0.45088026,0.45921543 0 0 0 -10e-4,0.649428 l 0.002,0.0024 0.71781,0.723607 a 0.44940521,0.4577131 0 0 0 0.32014,0.133368 0.45463983,0.46304448 0 0 0 0.31889,-0.132302 l 1.16282,-1.169805 c 0.004,-0.004 0.008,-0.0083 0.0117,-0.01259 a 0.45821502,0.46668576 0 0 0 -0.006,-0.635463 z"
       fill="#ffffff"
       id="path74"
       style="stroke-width:0.226923" />
    <path
       d="m -198.51518,73.485679 a 0.4194861,0.42724088 0 0 1 -0.29661,-0.729339 l 0.96181,-0.979625 -0.96181,-0.979623 a 0.41947906,0.42723374 0 0 1 0.59323,-0.6042 l 1.25846,1.281724 a 0.41944337,0.42719738 0 0 1 0,0.604197 l -1.25846,1.281724 a 0.41818194,0.42591262 0 0 1 -0.29662,0.125142 z"
       fill="#ffffff"
       id="path76"
       style="stroke-width:0.226923" />
    <path
       d="m -205.22696,74.767403 a 0.41947261,0.42722715 0 0 1 -0.41948,-0.427241 v -0.427241 a 2.5294432,2.5762035 0 0 1 2.51567,-2.563445 h 5.45457 a 0.41948618,0.42724096 0 1 1 0,0.85448 h -5.45333 a 1.6879819,1.7191866 0 0 0 -1.67794,1.710243 v 0.42596 a 0.41947261,0.42722715 0 0 1 -0.41949,0.427244 z"
       fill="#ffffff"
       id="path78"
       style="stroke-width:0.226923" />
    <path
       d="m -201.87107,78.18533 a 0.41818419,0.42591492 0 0 1 -0.29661,-0.125142 l -1.25846,-1.281724 a 0.41943662,0.4271905 0 0 1 0,-0.604197 l 1.25846,-1.281721 a 0.41947711,0.42723173 0 0 1 0.59323,0.604194 l -0.96182,0.979625 0.96182,0.979625 a 0.4194861,0.42724088 0 0 1 -0.29662,0.72934 z"
       fill="#ffffff"
       id="path80"
       style="stroke-width:0.226923" />
    <path
       d="m -202.71004,76.903607 a 0.41948672,0.4272415 0 0 1 0,-0.854483 h 5.45331 a 1.6879819,1.7191866 0 0 0 1.67795,-1.71024 v -0.425961 a 0.4194861,0.42724088 0 0 1 0.83897,0 v 0.427242 a 2.5294432,2.5762035 0 0 1 -2.51567,2.563444 z"
       fill="#ffffff"
       id="path82"
       style="stroke-width:0.226923" />
    <g
       id="g262"
       transform="matrix(0.26458333,0,0,0.26458333,13.656153,-18.027125)">
      <path
         d="m -258.05081,676.04649 v 72.16 a 22.58,22.58 0 0 1 -7.96,17.23 22.6419,22.6419 0 0 1 -14.69,5.41 h -204.65 a 22.58668,22.58668 0 0 1 -10.46,-2.55 21.15539,21.15539 0 0 1 -2.2,-1.3 22.66834,22.66834 0 0 1 -9.99,-18.79 v -72.13 a 186.97056,186.97056 0 0 1 249.95,-0.03 z"
         fill="#ffffff"
         opacity="0.3"
         id="path165" />
      <path
         d="m 619.7959,374.5752 c -20.52881,0 -43.05811,-3.90918 -60.646,-17.1001 -24.4873,-18.36524 -54.65674,-17.38526 -75.65332,-13.32813 a 164.86282,164.86282 0 0 0 -40.27441,13.415 l -0.92481,-1.77344 a 166.95707,166.95707 0 0 1 40.76758,-13.59521 c 21.40918,-4.14356 52.19678,-5.13379 77.28516,13.68213 46.99951,35.24951 131.15771,3.59033 132.00146,3.26758 l 0.7168,1.86718 a 242.3548,242.3548 0 0 1 -48.70606,11.85694 186.20165,186.20165 0 0 1 -24.5664,1.70805 z"
         transform="translate(-160.25,-159.32472)"
         fill="#ffffff"
         id="path171" />
      <path
         d="m 442.75,356.67528 c 0,0 69,-16.71229 117,6.16983 48,22.88212 133,-0.16983 133,-0.16983"
         transform="translate(-160.25,-159.32472)"
         fill="#ffffff"
         opacity="0.3"
         id="path173" />
      <path
         d="m 507.89111,382.63623 a 131.45576,131.45576 0 0 1 -24.82617,-2.479 166.95732,166.95732 0 0 1 -40.76758,-13.59523 l 0.92481,-1.77344 a 164.86232,164.86232 0 0 0 40.27441,13.415 c 20.99561,4.05664 51.16553,5.03711 75.65332,-13.32812 25.06641,-18.79981 60.17725,-18.74707 85.2124,-15.39209 a 242.3552,242.3552 0 0 1 48.70606,11.85693 l -0.7168,1.86719 c -0.84472,-0.32373 -85.001,-31.9834 -132.00146,3.26758 -16.4521,12.3394 -35.35694,16.16118 -52.45899,16.16118 z"
         transform="translate(-160.25,-159.32472)"
         fill="#ffffff"
         opacity="0.3"
         id="path175" />
      <path
         d="m 508.231,374.5835 c -34.63428,0 -65.39063,-12.4253 -65.852,-12.61524 l 0.76172,-1.84961 c 0.68457,0.28223 69.08837,27.89942 116.10009,0.0645 47.82471,-28.31983 132.90576,-3.041 133.75928,-2.78223 l -0.58008,1.91406 c -0.84472,-0.25586 -85.09277,-25.28125 -132.16064,2.58887 -16.06259,9.51119 -34.54062,12.67969 -52.02837,12.67969 z"
         transform="translate(-160.25,-159.32472)"
         fill="#ffffff"
         opacity="0.3"
         id="path177" />
      <path
         d="m 442.76,359.50545 c 0,0 68.99,22.88212 116.99,0 48,-22.88212 132.96,-2.16209 132.96,-2.16209"
         transform="translate(-160.25,-159.32472)"
         fill="#ffffff"
         opacity="0.3"
         id="path179" />
      <circle
         cx="-358.48898"
         cy="573.64551"
         fill="#ffb8b8"
         id="circle195"
         style="stroke-width:1.296"
         r="0" />
      <ellipse
         cx="-332.28436"
         cy="574.04865"
         rx="2.4788234"
         ry="7.2559996"
         fill="#ffb8b8"
         id="ellipse209"
         style="stroke-width:1.296" />
      <path
         d="m 442.76,356.67528 c 0,0 68.99,-36 116.99,0 48,36 132.96,3.40157 132.96,3.40157"
         transform="translate(-160.25,-159.32472)"
         fill="#ffffff"
         opacity="0.3"
         id="path215" />
      <g
         id="g428"
         transform="translate(-2068.6865,1.7110135)">
        <path
           d="m 1887.164,797.8781 c -0.6565,-2.0642 -1.313,-4.1512 -2.6259,-5.9474 a 23.980938,20.830251 0 0 0 -4.2999,-4.0885 c -4.7594,-3.7521 -10.602,-7.5612 -16.9107,-6.6146 a 22.576087,19.609974 0 0 0 -5.6063,1.7791 c -0.9191,0.3706 -1.8447,0.7413 -2.79,1.0549 a 13.897521,12.071624 0 0 1 -8.416,0.6386 c -1.4442,-0.3364 -2.79,-0.9408 -4.2145,-1.3172 a 13.359214,11.604041 0 0 0 -2.0679,-0.3877 35.213181,30.586769 0 0 0 3.9979,-1.8305 c 7.0768,-3.76344 12.7224,-10.5662 11.9347,-17.84224 -0.2692,-2.44626 -1.2342,-4.78988 -2.1927,-7.09928 l -2.5208,-6.05577 c -1.0898,-2.62303 -2.2189,-5.29738 -4.208,-7.47563 -2.2123,-2.42915 -5.3634,-4.07709 -8.6195,-5.30307 -6.9914,-2.64014 -14.6327,-3.5696 -22.1756,-4.47055 l -0.5252,-0.0627 v -70.7818 a 5.2517794,4.5617851 0 0 0 -5.2518,-4.56178 h -9.9127 q -0.6565,-3.48977 -1.313,-6.96813 c -1.2472,-6.62029 -2.5405,-13.36033 -6.0526,-19.31916 -2.2977,-3.90032 -5.9542,-7.62388 -10.8843,-8.38798 a 10.556077,9.1691881 0 0 1 -2.8294,-0.57022 c -1.4443,-0.61584 -2.232,-1.98438 -3.3415,-2.99367 -2.8622,-2.60592 -7.5166,-2.64584 -11.3504,-3.99157 -3.3874,-1.16895 -6.1577,-3.37002 -9.2431,-5.06358 -3.0855,-1.69356 -6.9193,-2.89673 -10.3329,-1.7962 0,0.21668 -0.046,0.43337 -0.072,0.64435 l -2.1926,-0.87814 c -2.3633,-0.95228 -4.7726,-1.92736 -6.6698,-3.48977 -2.4355,-1.99578 -3.7353,-4.64161 -4.7463,-7.45281 -0.105,-0.29082 -0.2035,-0.57023 -0.3085,-0.88385 a 30.480015,26.47546 0 0 0 8.1665,-13.5428 l 0.5317,1.49969 a 11.455444,9.9503938 0 0 0 0.4202,0.99218 4.5034008,3.9117308 0 0 0 1.3129,1.61374 2.3304771,2.0242922 0 0 0 0.5515,0.27941 2.2976535,1.995781 0 0 0 0.5645,0.12544 2.1007118,1.8247141 0 0 0 0.8141,-0.0513 3.1051146,2.6971555 0 0 0 1.9694,-1.58522 3.9388345,3.4213389 0 0 0 0.2297,-0.69567 4.142341,3.598108 0 0 0 0.046,-0.43337 c 0,-0.0456 0,-0.0912 0,-0.13685 0,-0.0456 0,-0.19958 0,-0.29652 0,-0.0969 0,-0.10264 0,-0.15966 0,-0.057 0,-0.18817 -0.033,-0.28511 v -0.14826 c 0,-0.11404 -0.039,-0.22809 -0.066,-0.33643 -0.026,-0.10834 0,-0.0627 0,-0.0912 -0.033,-0.14255 -0.072,-0.29081 -0.105,-0.43337 0,-0.0342 0,-0.0741 0,-0.10834 0,-0.0342 -0.059,-0.23379 -0.092,-0.35354 -0.033,-0.11974 -0.046,-0.15396 -0.066,-0.23379 v -0.0342 0 c -0.066,-0.22809 -0.1247,-0.45048 -0.1838,-0.67857 a 22.569522,19.604272 0 0 1 -0.3611,-6.02155 74.233902,64.480833 0 0 1 1.8776,-8.75293 l 0.1378,-0.5189 c 0.053,-0.19958 0.1051,-0.39916 0.151,-0.60444 0.105,-0.41056 0.2101,-0.82112 0.3085,-1.23738 v 0 l 0.2364,-1.04921 0.1772,-0.93517 v -0.11975 a 31.123358,27.034279 0 0 0 0.2298,-6.4036 v 0 c -0.302,-2.98227 -1.3655,-5.80487 -3.696,-8.05155 -1.6477,-1.59093 -3.8206,-2.76558 -5.3502,-4.43634 -1.4311,-1.56241 -2.2386,-3.48976 -3.7222,-5.02366 -4.0964,-4.24817 -14.6131,-7.52125 -21.0662,-8.09147 -7.3919,-0.65006 -19.3331,0.99219 -25.2939,4.78417 -2.2057,1.39705 -3.7156,3.42134 -5.2518,5.33729 -2.8228,3.56389 -6.0264,7.12209 -10.5495,9.12357 -1.7068,0.75269 -3.6631,1.32292 -4.7988,2.63443 a 8.1993406,7.122087 0 0 0 -1.2801,2.95376 67.426283,58.567619 0 0 0 -1.3523,11.27901 v 0 c 0,0.47329 0,0.94657 0,1.42556 a 11.967492,10.395168 0 0 0 1.0241,4.12271 c 0.105,0.19388 0.2232,0.38205 0.3479,0.57023 l 0.079,0.11974 a 26.114473,22.683477 0 0 1 2.1007,3.10772 4.7397309,4.1170111 0 0 1 0.3217,0.94657 8.0352225,6.9795313 0 0 1 -0.1838,2.49758 v 0 c 0,0.12544 -0.059,0.25089 -0.085,0.37634 l -0.059,0.2452 c 0,0.0855 0,0.17107 -0.053,0.2509 -0.053,0.24519 -0.099,0.49039 -0.1379,0.72988 v 0 a 5.9082518,5.1320083 0 0 0 0.1444,1.97297 2.9869495,2.5945153 0 0 0 1.4574,1.71067 4.2670708,3.7064504 0 0 0 1.1816,0.31933 c 0.4136,0.0627 0.8338,0.10264 1.2408,0.18247 a 6.1248877,5.3201819 0 0 1 1.5033,0.48469 6.0526758,5.2574574 0 0 1 1.267,0.70708 7.2211967,6.2724546 0 0 1 0.5448,0.47898 9.1906139,7.983124 0 0 1 0.9322,1.10624 q 0.2101,0.30222 0.3939,0.61584 a 16.195175,14.067405 0 0 1 1.1226,2.57741 c 0.1707,0.5303 0.3151,1.06631 0.4398,1.60232 0.059,0.2395 0.1116,0.47899 0.1576,0.71278 0.046,0.23379 0.092,0.47329 0.1313,0.70708 v 0 a 1.9103348,1.6593493 0 0 0 0.5251,-0.0912 c 0.9651,-0.30221 1.5034,-1.2773 1.8053,-2.22387 0.053,-0.15966 0.098,-0.31362 0.1379,-0.46758 0.151,-0.57022 0.3086,-1.19747 0.4595,-1.7962 a 30.440626,26.441247 0 0 0 11.9807,11.46148 c 0.1838,0.47329 0.361,0.94087 0.5186,1.41986 0.86,2.58311 1.2735,5.28597 -0.2167,7.54405 -1.0634,1.60233 -2.849,2.58881 -4.8447,3.27308 a 3.2035854,2.7826889 0 0 0 -1.0832,-0.79831 c -1.7265,-0.7527 -3.801,0.15966 -5.2518,1.283 -2.6259,2.06421 -4.766,5.02367 -8.219,5.70223 -1.2473,0.2509 -2.6259,0.19958 -3.6631,0.86104 a 8.5341415,7.4129008 0 0 0 -1.7003,1.93876 7.8251513,6.7970599 0 0 1 -6.7157,2.90814 c -1.2014,-0.0513 -2.6259,-0.29082 -3.4465,0.47328 -0.6105,0.57022 -0.6565,1.47118 -1.3129,2.01289 -0.8797,0.75269 -2.3239,0.38775 -3.5515,0.34213 -2.3371,-0.0855 -4.51,1.22598 -5.8427,2.90814 -1.3326,1.68216 -1.9694,3.69505 -2.6258,5.70223 v 0.0342 a 4.6937778,4.0770955 0 0 0 -0.4793,0.34783 6.9257841,6.0158541 0 0 0 -1.4508,2.0414 112.17144,97.434028 0 0 0 -9.2562,33.17558 3.9388345,3.4213389 0 0 1 -0.4202,1.60803 9.1052725,7.908995 0 0 1 -0.965,0.91236 3.6828103,3.1989518 0 0 0 0.6105,4.56178 4.1357763,3.5924058 0 0 1 0.7025,-0.80971 c -0.072,0.2623 -0.1379,0.5189 -0.1839,0.75269 a 23.298206,20.237219 0 0 0 -0.072,5.01797 q 0.9322,11.88345 1.8841,23.74979 c 0.1773,2.24098 0.3545,4.47625 0.5908,6.71153 q 0.6893,6.48914 1.9695,12.92695 c 0.039,0.19388 0.085,0.39346 0.1444,0.57023 -5.3503,1.47688 -10.1097,4.14552 -12.1119,8.59896 -0.6959,1.53961 -1.011,3.21606 -1.8644,4.69294 -0.9388,1.61943 -2.4815,2.91384 -3.5056,4.49906 -1.7659,2.72567 -1.8447,6.06717 -1.2013,9.12357 1.2407,5.95883 4.9498,11.28472 9.8471,15.61841 -0.2167,0 -0.4399,0 -0.6565,0 a 10.267229,8.9182899 0 0 0 -4.4837,1.39705 c -10.3591,5.25746 -16.2805,16.53645 -14.1207,26.83475 0.4267,2.0128 1.1685,4.0542 2.7178,5.5881 a 10.181887,8.8441609 0 0 0 4.7791,2.5432 16.602188,14.420943 0 0 0 3.5252,0.5703 c 8.0746,0.5702 15.8932,-2.6801 23.9875,-2.9538 a 64.334298,55.881868 0 0 1 8.0287,0.325 q 5.8492,0.422 11.718,0.536 c 6.3612,0.1312 9.939,-1.34 13.996,-5.4684 a 17.13393,14.882824 0 0 0 2.4749,-3.3871 c 3.4531,-0.1711 7.2672,-0.4334 10.0244,-0.6273 l 0.039,0.3308 c 0.151,1.1404 0.3808,2.4519 1.4312,3.1704 a 4.9957552,4.3393981 0 0 0 1.9694,0.7014 c 6.6303,1.4141 13.3395,2.8511 20.1668,2.8511 a 85.151038,73.963644 0 0 0 9.5779,-0.6387 l 11.9938,-1.2031 a 59.738991,51.890306 0 0 1 10.3066,1.9501 c 3.4662,1.0207 6.7026,2.5375 10.09,3.7407 7.8777,2.7713 16.3462,3.7635 24.7359,4.7328 1.4311,0.1654 3.0723,0.2795 4.1292,-0.5702 1.3654,-1.1404 0.9125,-3.045 0.5252,-4.6416 -0.1576,-0.6557 -0.2758,-1.3115 -0.3677,-1.973 a 115.04679,99.931606 0 0 1 16.5694,4.9952 l 0.9388,0.3592 c 0.2757,1.2431 1.5952,2.2353 2.8622,3.5753 a 10.503559,9.1235703 0 0 0 1.4508,1.5624 4.8382018,4.2025446 0 0 0 2.081,0.6501 97.039754,84.290385 0 0 0 26.8694,1.0549 27.479936,23.869541 0 0 1 5.5406,-0.1654 24.013761,20.858763 0 0 1 4.0045,0.7813 l 7.5954,1.8931 c 5.5997,1.3913 11.3307,2.7998 17.1405,2.4862 a 21.926179,19.045453 0 0 0 3.499,-0.4391 c 4.5953,-0.9238 8.8755,-3.1533 11.0813,-6.74 3.1182,-4.8755 1.6805,-10.8742 0,-16.2343 z"
           fill="url(#be976a09-f639-4984-bf14-ee296c482822)"
           id="path277"
           style="fill:url(#be976a09-f639-4984-bf14-ee296c482822);stroke-width:0.61183" />
        <ellipse
           cx="1733.1161"
           cy="755.49335"
           rx="93.875557"
           ry="22.808926"
           fill="#464353"
           id="ellipse281"
           style="stroke-width:0.61183" />
        <ellipse
           cx="1733.1161"
           cy="755.49335"
           rx="93.875557"
           ry="22.808926"
           opacity="0.1"
           id="ellipse283"
           style="stroke-width:0.61183" />
        <path
           d="m 1749.9481,635.08507 a 29.206458,25.369228 0 0 1 -15.0595,11.88345 37.799682,32.833449 0 0 1 -11.9543,1.97298 c -4.4575,0.17676 -9.0068,-0.0741 -13.1951,-1.39705 -5.6194,-1.76769 -10.2869,-5.38291 -13.7859,-9.59686 -3.499,-4.21395 -5.9083,-9.02663 -8.0024,-13.87923 -1.1029,-2.52609 -2.1533,-5.21754 -1.6346,-7.88618 3.3808,-0.66717 7.0833,-1.64795 8.8295,-4.25387 1.4902,-2.23527 1.0766,-4.91532 0.2166,-7.46992 -0.2429,-0.72419 -0.5251,-1.44267 -0.8074,-2.13264 -0.6565,-1.65364 -2.9213,-4.79557 -1.313,-6.20973 1.0044,-0.89525 5.2124,-1.35143 6.6632,-1.93305 4.4706,-1.7905 8.5933,-4.37932 13.5037,-5.22895 4.2473,-0.73559 8.6326,-0.0456 12.8734,0.71848 a 4.2342471,3.6779393 0 0 1 1.5887,0.4961 3.8206695,3.3186987 0 0 1 1.1816,1.5396 c 1.2079,2.5546 1.9169,5.3772 2.8885,8.04014 1.011,2.7884 2.3108,5.40572 4.7463,7.38439 1.8972,1.54531 4.313,2.51469 6.6763,3.45556 l 5.8164,2.3151 a 7.6479037,6.6430996 0 0 1 2.7506,1.54531 6.9651724,6.0500675 0 0 1 1.3129,3.10201 33.361929,28.97874 0 0 1 -3.2955,17.53436 z"
           fill="#fbbebe"
           id="path285"
           style="stroke-width:0.61183" />
        <circle
           cx="1710.134"
           cy="578.38385"
           fill="#fbbebe"
           id="circle289"
           style="stroke-width:0.61183"
           r="0" />
        <path
           d="m 1802.1442,665.5635 -2.4814,-13.05811 c -1.2539,-6.55186 -2.5471,-13.22918 -6.0527,-19.13099 -2.3042,-3.86611 -5.9608,-7.54975 -10.8909,-8.31385 a 10.536382,9.1520814 0 0 1 -2.8359,-0.57022 c -1.4443,-0.60444 -2.232,-1.96157 -3.3415,-2.96516 -2.8622,-2.57741 -7.5231,-2.61733 -11.3569,-3.92884 -3.3874,-1.14045 -6.1578,-3.33581 -9.2432,-5.01226 -3.0854,-1.67646 -6.9258,-2.85112 -10.3394,-1.7791 -0.5515,5.1035 -1.1357,10.32104 -3.6303,14.96836 a 25.786237,22.398365 0 0 1 -38.9026,8.41649 c -5.8491,-3.82619 -9.5976,-9.728 -11.3438,-15.90352 -0.4267,-1.50539 -0.9125,-3.23317 -2.5077,-3.92314 -1.7266,-0.75269 -3.801,0.15967 -5.2518,1.2659 -2.6259,2.0471 -4.7726,4.97805 -8.2256,5.66802 -1.2473,0.2509 -2.6259,0.19958 -3.6631,0.85533 a 8.3371998,7.2418339 0 0 0 -1.7069,1.92165 7.8776691,6.8426777 0 0 1 -6.7157,2.88533 c -1.2013,-0.0513 -2.6259,-0.29081 -3.4465,0.46759 -0.6105,0.57022 -0.6564,1.45977 -1.3129,1.99008 -0.8862,0.74699 -2.3239,0.38204 -3.5581,0.34213 -2.337,-0.0855 -4.5099,1.21457 -5.8491,2.85111 -1.3393,1.63655 -1.9695,3.66084 -2.6259,5.6224 7.1752,13.87924 13.7399,27.77557 20.9152,41.65481 a 4.0898232,3.5524902 0 0 1 0.5186,1.71066 4.7988134,4.1683312 0 0 1 -0.8928,1.71067 c -3.5187,4.90963 -3.4071,11.08514 -3.0198,16.8558 0.3873,5.77066 0.86,11.86634 -2.1073,17.03827 -0.8074,1.41985 -1.8578,2.71996 -2.6259,4.13982 -1.7987,3.21606 -2.4486,13.50288 -1.3982,16.95843 h 148.4152 c -2.8294,-6.75714 -1.7527,-20.31705 -1.1619,-27.49045 0.4136,-5.01797 -0.6565,-10.03023 -1.116,-15.04819 -1.0044,-10.24691 -0.2954,-19.96922 -2.2452,-30.19902 z"
           fill="#00cdac"
           id="path291"
           style="stroke-width:0.61183" />
        <path
           d="m 1635.4922,680.50335 a 23.239124,20.185899 0 0 0 -0.079,4.97804 l 1.884,23.53311 c 0.1773,2.21817 0.3545,4.43064 0.5909,6.6431 0.4529,4.29378 1.1291,8.55335 1.9694,12.80721 a 2.6258897,2.2808926 0 0 0 2.6915,2.21817 c 8.3044,1.5282 16.8845,1.46548 25.3595,1.04921 12.9325,-0.62724 25.8454,-2.0585 38.7976,-1.81331 3.3348,0.0627 7.2212,0 9.2431,-2.28089 2.0219,-2.28089 0.8468,-5.97024 -1.7922,-7.81206 -2.639,-1.84182 -6.2233,-2.28089 -9.6107,-2.28089 -4.4837,-0.0399 -8.9674,0.5132 -13.438,0.28511 -4.103,-0.21098 -8.114,-1.07202 -12.0923,-1.93305 l -11.16,-2.41205 c 0.4267,-2.93665 1.7134,-5.70223 2.9345,-8.49062 2.1926,-4.94383 4.2408,-10.05303 4.2802,-15.35041 0.039,-5.29737 -2.2583,-10.86845 -7.2541,-13.90204 -4.1095,-2.49187 -9.4007,-2.95375 -14.4095,-2.85111 -3.6435,0.0912 -9.939,-0.66716 -13.2673,0.57022 -2.6325,1.00359 -4.1555,4.80128 -4.6479,7.04226 z"
           fill="#fbbebe"
           id="path293"
           style="stroke-width:0.61183" />
        <path
           d="m 1809.7396,734.3096 c 2.1861,-0.72418 4.5953,-0.46188 6.9389,-0.18817 7.5429,0.89525 15.1974,1.81331 22.1888,4.43063 3.2824,1.22028 6.4072,2.85112 8.6261,5.25176 1.9694,2.16114 3.1182,4.80698 4.208,7.4129 l 2.5208,5.99875 c 0.9585,2.28089 1.93,4.6074 2.1992,7.03085 0.7878,7.17911 -4.8645,13.94765 -11.9741,17.67688 -7.1096,3.7293 -15.4796,5.0579 -23.633,6.4493 -8.1534,1.3913 -16.3396,2.9309 -24.4601,4.5617 a 98.470864,85.533471 0 0 1 -11.508,1.9673 c -8.6917,0.8554 -17.7773,-0.4048 -26.0357,2.0927 -3.2824,0.9979 -6.5056,2.4805 -9.9127,3.1705 a 61.662455,53.56106 0 0 1 -6.8536,0.9066 l -15.6306,1.551 a 85.269203,74.066284 0 0 1 -9.5845,0.6387 c -6.8273,0 -13.543,-1.4028 -20.1734,-2.8055 a 5.1007907,4.4306338 0 0 1 -1.9694,-0.69 c -1.0504,-0.7185 -1.2801,-1.9901 -1.4311,-3.1419 q -1.0044,-7.6467 -1.7594,-15.3105 c -0.1575,-1.6593 -0.2757,-3.45556 0.7681,-4.8526 1.3129,-1.71067 3.8732,-2.24668 6.2102,-2.57741 a 162.06991,140.77669 0 0 1 29.9877,-1.80761 c 3.8141,-3.313 10.1031,-3.3301 15.0989,-5.13201 a 44.896149,38.997561 0 0 0 5.3239,-2.51468 69.586077,60.443653 0 0 1 29.2328,-8.02304 27.210782,23.635749 0 0 0 5.9804,-0.74129 c 3.8666,-1.04351 7.3919,-3.88322 11.3636,-3.18755 0.4923,-1.18036 0.8337,-2.75988 1.9694,-3.5696 0.5645,-0.41626 1.2604,-0.69567 1.779,-1.14044 1.0963,-0.96368 1.1948,-2.48047 1.0307,-3.8262 -0.1641,-1.34573 -0.5318,-2.72567 -0.1313,-4.03718 a 6.426865,5.5824846 0 0 1 0.7287,-1.40845 c 1.9694,-2.95376 4.9432,-4.47055 8.9017,-4.18544 z"
           fill="#464353"
           id="path295"
           style="stroke-width:0.61183" />
        <path
           d="m 1809.7396,734.3096 c 2.1861,-0.72418 4.5953,-0.46188 6.9389,-0.18817 7.5429,0.89525 15.1974,1.81331 22.1888,4.43063 3.2824,1.22028 6.4072,2.85112 8.6261,5.25176 1.9694,2.16114 3.1182,4.80698 4.208,7.4129 l 2.5208,5.99875 c 0.9585,2.28089 1.93,4.6074 2.1992,7.03085 0.7878,7.17911 -4.8645,13.94765 -11.9741,17.67688 -7.1096,3.7293 -15.4796,5.0579 -23.633,6.4493 -8.1534,1.3913 -16.3396,2.9309 -24.4601,4.5617 a 98.470864,85.533471 0 0 1 -11.508,1.9673 c -8.6917,0.8554 -17.7773,-0.4048 -26.0357,2.0927 -3.2824,0.9979 -6.5056,2.4805 -9.9127,3.1705 a 61.662455,53.56106 0 0 1 -6.8536,0.9066 l -15.6306,1.551 a 85.269203,74.066284 0 0 1 -9.5845,0.6387 c -6.8273,0 -13.543,-1.4028 -20.1734,-2.8055 a 5.1007907,4.4306338 0 0 1 -1.9694,-0.69 c -1.0504,-0.7185 -1.2801,-1.9901 -1.4311,-3.1419 q -1.0044,-7.6467 -1.7594,-15.3105 c -0.1575,-1.6593 -0.2757,-3.45556 0.7681,-4.8526 1.3129,-1.71067 3.8732,-2.24668 6.2102,-2.57741 a 162.06991,140.77669 0 0 1 29.9877,-1.80761 c 3.8141,-3.313 10.1031,-3.3301 15.0989,-5.13201 a 44.896149,38.997561 0 0 0 5.3239,-2.51468 69.586077,60.443653 0 0 1 29.2328,-8.02304 27.210782,23.635749 0 0 0 5.9804,-0.74129 c 3.8666,-1.04351 7.3919,-3.88322 11.3636,-3.18755 0.4923,-1.18036 0.8337,-2.75988 1.9694,-3.5696 0.5645,-0.41626 1.2604,-0.69567 1.779,-1.14044 1.0963,-0.96368 1.1948,-2.48047 1.0307,-3.8262 -0.1641,-1.34573 -0.5318,-2.72567 -0.1313,-4.03718 a 6.426865,5.5824846 0 0 1 0.7287,-1.40845 c 1.9694,-2.95376 4.9432,-4.47055 8.9017,-4.18544 z"
           opacity="0.05"
           id="path297"
           style="stroke-width:0.61183" />
        <path
           d="m 1680.6969,800.2901 c -4.0636,4.0885 -7.6414,5.5483 -14.0026,5.4171 q -5.8689,-0.1197 -11.7246,-0.5303 a 65.778537,57.136359 0 0 0 -8.0352,-0.325 c -8.1009,0.2737 -15.9195,3.4955 -24.0007,2.931 a 17.015765,14.780184 0 0 1 -3.5252,-0.5703 10.260664,8.9125877 0 0 1 -4.7857,-2.5204 c -1.5493,-1.5224 -2.2911,-3.541 -2.7178,-5.5368 -2.1598,-10.2298 3.7616,-21.37199 14.1273,-26.57812 a 10.359135,8.9981212 0 0 1 4.4903,-1.38565 10.641418,9.2433171 0 0 1 4.5428,0.86674 l 0.098,0.0342 a 34.353202,29.839777 0 0 1 11.252,6.52335 6.3415236,5.5083556 0 0 0 1.7199,1.20318 5.9082518,5.1320083 0 0 0 2.0285,0.3307 l 8.6261,0.4733 a 20.442551,17.756749 0 0 1 4.3327,0.5189 34.438543,29.913906 0 0 1 4.5559,1.7107 c 4.6413,1.8019 9.788,2.2809 14.8035,2.9765 a 2.2123121,1.921652 0 0 1 1.3129,0.4562 2.0547587,1.7847984 0 0 1 0.407,0.7413 16.746612,14.546392 0 0 1 -3.5055,13.2634 z"
           fill="#3f3d56"
           id="path299"
           style="stroke-width:0.61183" />
        <path
           d="m 1635.1639,772.09829 a 51.795674,44.990606 0 0 0 -8.6326,9.37451 54.014551,46.91796 0 0 0 -7.0505,18.555 39.650934,34.441478 0 0 0 -0.072,7.1905 10.260664,8.9125877 0 0 1 -4.7857,-2.5203 c -1.5493,-1.5225 -2.2911,-3.5411 -2.7178,-5.5369 -2.1598,-10.2298 3.7616,-21.37198 14.1273,-26.57812 a 10.359135,8.9981212 0 0 1 4.4903,-1.38564 10.641418,9.2433171 0 0 1 4.5428,0.86674 z"
           opacity="0.1"
           id="path301"
           style="stroke-width:0.61183" />
        <path
           d="m 1674.7164,740.04605 c 0,0.57022 -1.0307,0 -1.1226,-0.61014 -0.7221,-4.61311 -4.9367,-8.4165 -9.8471,-10.26402 -4.9104,-1.84752 -10.5035,-1.94446 -15.821,-1.50539 -8.0417,0.66146 -17.0682,3.33581 -20.0092,9.86486 -0.6959,1.5282 -1.011,3.18185 -1.8644,4.64732 -0.9453,1.60803 -2.488,2.89103 -3.5121,4.45344 -1.766,2.70286 -1.8382,6.01586 -1.2014,9.07225 1.7134,8.1542 8.1337,15.12802 15.9129,19.95781 7.7792,4.82982 16.8713,7.71512 25.9372,10.31532 a 449.80834,390.71119 0 0 0 73.5249,15.2535 c 4.0439,0.5303 8.1272,1.0207 12.0004,2.1497 3.4661,1.0093 6.7091,2.5204 10.0965,3.7065 7.8777,2.7485 16.3527,3.7292 24.749,4.6929 1.4311,0.1597 3.0723,0.2737 4.1292,-0.5702 1.3655,-1.1005 0.9125,-3.0165 0.5252,-4.596 a 28.45808,24.719173 0 0 1 3.3546,-17.5401 c 1.4048,-2.0528 3.2298,-4.1569 2.9672,-6.5347 -0.3151,-2.7713 -3.4924,-4.73288 -6.6566,-5.17765 -3.1642,-0.44477 -6.3809,0.21098 -9.5582,0.57022 -1.0963,0.12545 -2.2911,0.20528 -3.2496,-0.27941 a 6.4925123,5.6395069 0 0 1 -1.2735,-0.98078 14.39644,12.504994 0 0 0 -16.7663,-2.0357 c -1.1751,0.57023 -2.9542,-0.70137 -4.1752,-1.18036 l -13.8056,-5.42852 c -15.8604,-6.23254 -31.7995,-12.49359 -48.579,-16.43954 a 10.201581,8.8612676 0 0 1 -3.7419,-1.35143 c -0.8337,-0.57022 -1.4311,-1.34572 -2.1992,-1.97867 -1.674,-1.37424 -4.0044,-1.92165 -6.0132,-2.89673 -2.0088,-0.97509 -4.2605,-3.35862 -3.801,-5.31448 z"
           fill="#464353"
           id="path305"
           style="stroke-width:0.61183" />
        <path
           d="m 1646.4881,638.65467 a 6.7944896,5.9018095 0 0 0 -1.4574,2.02429 110.19546,95.717657 0 0 0 -9.2563,32.85626 3.7812812,3.2844853 0 0 1 -0.4267,1.59092 8.0155283,6.9624246 0 0 1 -0.965,0.90666 3.6237278,3.1476317 0 0 0 0.6171,4.56178 c 1.0832,-1.77339 3.6763,-2.34932 5.9805,-2.50328 11.0353,-0.75839 21.8145,3.70075 32.8827,3.36432 -0.7812,-2.34362 -1.9038,-4.596 -2.5406,-6.96813 -2.8162,-10.53202 4.208,-21.99921 -0.099,-32.14348 -0.86,-2.02999 -2.2976,-4.02577 -4.5625,-4.91532 a 12.151305,10.55483 0 0 0 -2.9213,-0.67286 c -2.7965,-0.43907 -8.3634,-2.31511 -11.0681,-1.56241 -0.9978,0.2794 -1.3917,1.09482 -2.2189,1.58522 -1.2538,0.70137 -2.9213,0.95797 -3.9651,1.87603 z"
           fill="#00cdac"
           id="path311"
           style="stroke-width:0.61183" />
        <rect
           x="1669.7665"
           y="659.41077"
           width="146.39336"
           height="80.971687"
           rx="5.2320852"
           fill="#3f3d56"
           id="rect313"
           style="stroke-width:0.61183" />
        <circle
           cx="1742.6349"
           cy="699.89661"
           fill="#ffffff"
           id="circle315"
           style="stroke-width:0.61183"
           r="0" />
        <g
           opacity="0.1"
           id="g325"
           transform="matrix(0.65647242,0,0,0.57022314,1725.1137,513.81002)">
          <path
             d="m 198.72,364.11 c -0.51,-3.05 -3,-5.42 -4.35,-8.22 a 16.45,16.45 0 0 1 -1.48,-6 c 0,1.12 -0.1,2.24 -0.11,3.37 0,3.28 0.14,6.66 1.59,9.64 1.11,2.27 2.94,4.27 3.86,6.58 a 15.06,15.06 0 0 0 0.49,-5.37 z"
             transform="translate(-80.89,-103.35)"
             id="path321" />
          <path
             d="m 317.14,342.83 c -1.82,8.72 -4.66,17.6 -3.78,26.34 0.57,-6.45 2.45,-12.94 3.78,-19.34 a 51,51 0 0 0 1.16,-14.83 61.14,61.14 0 0 1 -1.16,7.83 z"
             transform="translate(-80.89,-103.35)"
             id="path323" />
        </g>
        <g
           opacity="0.1"
           id="g365"
           transform="matrix(0.65647242,0,0,0.57022314,1592.5851,426.3834)">
          <path
             d="m 167.24,402.71 c 0,0 -74.77,-31.44 -84.57,25.29 0,0 -5.11,8.84 2,16.14 0,0 1.53,-3.92 8.75,0.13 a 37.17,37.17 0 0 0 8.16,3.32 18.36,18.36 0 0 0 11.62,-0.62 v 0 c 0,0 24.59,-1.33 45.27,-33.5 0,0 8.87,-5.48 9.31,-7.54 l -14.82,1 c 0,0 1.14,10.85 -5,17.36 0,0 5.44,-16.84 2.83,-17.31 -0.53,-0.1 -7.83,0.86 -7.83,0.86 0,0 1.89,18.87 -8,28.63 0,0 9.18,-19.19 5.19,-28.29 l -10.94,2.11 c 0,0 3,19.85 -7.82,31.39 0,0 8.9,-20.4 5.46,-30.76 l -10.47,3.52 c 0,0 2.52,19.41 -6.53,29 0,0 7.9,-24.61 4.18,-28 0,0 -9.42,3.82 -11.43,6 0,0 1.49,14 -4.26,19.05 0,0 3.53,-17 1.78,-17.7 0,0 -10.94,8.24 -14.28,15.35 0,0 4.16,-10.86 12.91,-17 0,0 -7.35,-1.24 -13,1.83 0,0 3.78,-7.21 15.65,-3.79 0,0 8.79,-6.09 10.55,-6 0,0 -11.23,-5 -19.34,-4.38 0,0 8.7,-5 22.08,3.35 l 10.45,-3.77 c 0,0 -14.5,-7.43 -21.76,-7.4 0,0 9.66,-3.74 24.47,6.66 l 10.7,-2.18 c 0,0 -12,-7.35 -20.09,-9.06 0,0 9.7,-1.54 23.18,8.55 l 7.31,-0.61 c 0,0 -8.85,-5.22 -11.53,-6.49 -2.68,-1.27 -2.56,-2.09 -2.56,-2.09 a 34.89,34.89 0 0 1 17.14,8.18 c 0,0 15.18,-0.3 15.24,-1.23 z"
             transform="translate(-80.89,-103.35)"
             fill="#00cdac"
             id="path363" />
        </g>
        <g
           opacity="0.1"
           id="g369"
           transform="matrix(0.65647242,0,0,0.57022314,1592.5851,426.3834)">
          <path
             d="m 164.48,346.35 c 0,0 -26.48,-61.27 -64.63,-33.17 0,0 -8.06,2.34 -8,10.7 0,0 3.14,-1.46 5.13,5.07 a 30.1,30.1 0 0 0 3,6.61 15,15 0 0 0 7.25,6.25 v 0 c 0,0 15.37,13.22 46,5.89 0,0 8.4,1.79 9.83,0.83 l -9.36,-7.87 c 0,0 -5.51,7.1 -12.89,7.44 0,0 12.83,-6.9 11.55,-8.67 -0.26,-0.36 -5.15,-3.94 -5.15,-3.94 0,0 -9.62,12.28 -21,12.47 0,0 16.39,-6.18 19.2,-13.85 l -7.7,-5 c 0,0 -9.71,13.51 -22.71,14.21 0,0 16.91,-7.05 20.77,-15.17 l -8.23,-3.87 c 0,0 -9.56,13 -20.37,13.49 0,0 18.72,-10.12 18.43,-14.25 0,0 -7.77,-3.1 -10.24,-2.92 0,0 -7.07,9.15 -13.38,8.89 0,0 11.79,-8.09 11.15,-9.5 0,0 -11.2,-1.34 -17.23,1 0,0 8.66,-4.08 17.35,-2.74 0,0 -3.66,-4.93 -8.75,-6.3 0,0 6.36,-2.13 11.46,6.65 0,0 8.68,1.4 9.7,2.44 0,0 -3.81,-9.39 -9,-13.62 0,0 8,2 11.2,14.57 l 8.36,3.71 c 0,0 -4.38,-12.68 -8.72,-16.79 0,0 7.87,3.28 10.75,17.9 l 7.6,4.79 c 0,0 -2.94,-11.2 -6.77,-16.83 0,0 6.64,4.62 8.89,18.29 l 4.7,3.8 c 0,0 -2.29,-8.14 -3.16,-10.42 -0.87,-2.28 -0.33,-2.7 -0.33,-2.7 a 28.65,28.65 0 0 1 5.49,14.68 c 0,0 9.24,8.44 9.81,7.93 z"
             transform="translate(-80.89,-103.35)"
             fill="#00cdac"
             id="path367" />
        </g>
      </g>
    </g>
    <ellipse
       style="fill:#ffbbb4;fill-opacity:1;fill-rule:evenodd;stroke-width:0.280876"
       id="path136"
       cx="-81.777504"
       cy="134.94919"
       rx="7.040072"
       ry="7.0247421" />
    <path
       d="m -75.459422,125.81191 1.40408,-0.61519 c 0,0 -2.93581,-3.53727 -7.02046,-3.22967 l 1.14883,-1.38417 c 0,0 -2.80818,-1.23034 -5.36106,1.99934 -1.34201,1.69777 -2.89472,3.6934 -3.86267,5.94148 h -1.50369 l 0.62758,1.51231 -2.19654,1.51231 2.25453,-0.27166 a 6.3336325,7.6312098 0 0 0 0.21324,3.91672 l 0.51057,1.69172 c 0,0 2.04233,-4.92142 2.04233,-5.53661 v 1.53795 c 0,0 1.40409,-1.38416 1.40409,-2.30691 l 0.76586,1.07656 0.38293,-1.69176 4.72284,1.69176 -0.76586,-1.38414 2.93582,0.46138 -1.14883,-1.69175 c 0,0 3.31874,1.99933 3.44642,3.69107 0.12766,1.69176 1.00385,3.89698 1.00385,3.89698 l 1.06226,-1.4932 c 0,0 1.63555,-7.01761 -2.06612,-9.32452 z"
       fill="#2f2e41"
       id="path207"
       style="stroke-width:0.333303" />
    <path
       style="fill:#fbbebe;fill-opacity:1;stroke-width:0.044341"
       d="m -82.459985,141.93891 c -1.327499,-0.14185 -2.628172,-0.6643 -3.610623,-1.4503 -1.420567,-1.13651 -2.389762,-2.75704 -2.625969,-4.39072 l -0.05271,-0.36455 0.359354,-0.90736 c 0.509966,-1.28765 0.699368,-1.79342 0.945867,-2.5258 l 0.216395,-0.64295 0.0026,0.64295 0.0026,0.64294 0.286134,-0.31039 c 0.5568,-0.60399 1.053465,-1.38759 1.112163,-1.75467 0.01532,-0.0958 0.04119,-0.17417 0.05749,-0.17417 0.0163,0 0.186814,0.22244 0.378917,0.4943 0.282075,0.39919 0.355127,0.47811 0.379667,0.41016 0.01672,-0.0463 0.105862,-0.42335 0.198114,-0.83794 0.09225,-0.41459 0.171024,-0.75826 0.175051,-0.7637 0.004,-0.005 1.062469,0.36829 2.352088,0.83052 1.289619,0.46222 2.352826,0.83234 2.362684,0.82248 0.0099,-0.01 -0.145327,-0.31028 -0.344858,-0.6676 -0.199527,-0.35732 -0.355425,-0.65703 -0.346435,-0.66601 0.009,-0.009 0.643824,0.0825 1.410748,0.20326 0.766921,0.12079 1.410716,0.21418 1.430653,0.20753 0.01995,-0.007 -0.193136,-0.35027 -0.473499,-0.76362 -0.28036,-0.41334 -0.502023,-0.75926 -0.492577,-0.7687 0.02648,-0.0265 0.750736,0.4807 1.220261,0.85453 0.622355,0.49551 1.301514,1.1888 1.598583,1.63184 0.256971,0.38323 0.441106,0.84127 0.441106,1.09725 0,0.36955 0.272274,1.6364 0.541207,2.51816 l 0.139248,0.45656 -0.07604,0.43026 c -0.04182,0.23664 -0.153363,0.66183 -0.247872,0.94485 -0.813922,2.43739 -2.815794,4.20781 -5.310976,4.69692 -0.465659,0.0913 -1.602835,0.14954 -2.02929,0.10397 z"
       id="path1029" />
    <path
       style="fill:#fbbebe;fill-opacity:1;stroke-width:2.52923"
       d="M -870.69776,445.3254 V 81.116946 h 410.99912 410.999126 V 445.3254 809.53386 H -459.69864 -870.69776 Z m 734.57236,308.18166 c 7.5312,-3.43145 10.00116,-9.62458 7.81257,-19.58918 -3.3518,-15.26063 -19.76888,-22.89507 -36.52206,-16.98384 l -6.1141,2.1573 5.48179,-6.96895 c 6.77984,-8.6192 6.92833,-16.29891 0.55663,-28.78851 -4.94405,-9.6911 -11.28285,-13.57574 -27.32248,-16.74408 l -8.21999,-1.62371 v -36.53605 -36.53603 l -7.45011,-1.49001 c -5.80624,-1.16125 -7.82671,-3.24009 -9.15691,-9.42137 -3.01552,-14.01289 -7.99619,-20.44476 -20.49229,-26.46308 -6.72131,-3.23708 -15.44274,-7.50515 -19.38092,-9.4846 -3.93818,-1.97944 -9.62894,-3.63518 -12.64613,-3.67941 -6.76793,-0.0992 -14.36564,-5.59614 -14.25765,-10.3153 0.11761,-5.1433 5.78472,-11.70108 9.13531,-10.57122 1.88514,0.63569 3.51039,-5.17568 4.6662,-16.68457 1.69152,-16.8435 1.44085,-18.08507 -5.4219,-26.85342 -7.3859,-9.43679 -17.89726,-16.43028 -24.69503,-16.43028 -2.37426,0 -3.28435,-1.44813 -2.38423,-3.79383 3.44352,-8.97367 -10.12777,-3.05154 -25.25353,11.01991 -8.75802,8.14757 -17.48716,15.33492 -19.39812,15.9719 -3.3579,1.11931 -4.31762,13.94279 -1.96437,26.24765 0.97324,5.08898 10.48179,16.31423 13.81928,16.31423 0.93376,0 3.90487,1.99177 6.60244,4.42615 4.39324,3.96461 4.3274,3.44627 -0.63137,-4.97097 -3.70281,-6.28532 -4.94916,-11.24612 -3.76379,-14.9809 1.95668,-6.16499 11.24749,-17.17767 11.30903,-13.40497 0.0202,1.30561 0.96935,0.90703 2.10677,-0.88571 1.58258,-2.49442 3.75061,-2.61985 9.23602,-0.5343 4.64768,1.76704 7.70842,1.85081 8.70506,0.23825 1.902,-3.07748 9.35171,-2.16231 13.12658,1.61256 2.45484,2.45484 3.4404,16.24286 2.30835,32.29378 -0.19627,2.78215 2.54359,7.56471 6.0885,10.62788 3.54491,3.0632 6.44528,7.37133 6.44528,9.5736 0,13.71528 -20.96829,25.15697 -34.21258,18.66865 -10.87944,-5.32979 -17.50937,-15.57895 -14.14459,-21.86607 2.43493,-4.54975 2.10851,-4.97167 -2.90353,-3.75296 -3.10579,0.75517 -7.3541,2.68429 -9.44071,4.28696 -2.08661,1.60264 -7.2083,4.4203 -11.38152,6.26145 -4.17322,1.84115 -9.37457,4.2346 -11.55858,5.31881 -2.18401,1.0842 -11.28923,3.83519 -20.23381,6.11329 -21.48771,5.47276 -44.92104,16.59253 -64.68101,30.69296 l -16.07713,11.47234 0.0152,34.64907 c 0.0221,56.94364 3.03062,61.20591 43.20094,61.20591 h 23.23354 l -6.41748,6.41746 c -14.17042,14.17044 -9.80151,34.77335 6.72205,31.69974 1.24245,-0.23117 13.59896,-0.69096 27.45891,-1.02188 20.41733,-0.48749 25.80169,-1.42462 28.37055,-4.93776 3.70489,-5.06672 9.19548,-5.59417 13.49337,-1.29628 1.90724,1.90724 12.69711,3.20165 28.95963,3.47415 16.04541,0.26885 30.64976,2.0014 38.33562,4.54785 16.09763,5.3334 26.7872,5.39296 26.7872,0.14922 0,-4.70967 8.73772,-2.81814 15.85296,3.43183 3.06732,2.69431 12.87032,4.52716 31.21732,5.83667 14.71023,1.04996 27.3992,2.56233 28.19773,3.36083 2.33948,2.33951 9.99355,1.67698 16.88111,-1.46121 z m 1.21572,-169.07426 c 0.12368,-3.37229 -0.13329,-3.37229 -2.31272,0 -1.34848,2.08661 -2.38921,6.07014 -2.31273,8.85229 l 0.13911,5.05845 2.17369,-5.05845 c 1.19554,-2.78215 2.23627,-6.76568 2.31273,-8.85229 z m -256.6513,-31.71297 c 4.51039,-2.14033 11.97897,-7.78966 16.59678,-12.55404 l 8.39607,-8.66252 -7.36228,-2.81811 c -9.90141,-3.79002 -31.67882,-3.80148 -38.74386,-0.0202 -4.72712,2.52986 -12.87983,16.21734 -12.87983,21.62377 0,2.37281 10.91528,5.99178 18.58695,6.16245 3.96299,0.0883 10.89578,-1.59085 15.40617,-3.73116 z m 21.64984,-54.57826 c 0,-1.55471 -4.41871,-7.24547 -9.81934,-12.64612 -7.29357,-7.29356 -11.89039,-9.81934 -17.87085,-9.81934 -6.61615,0 -15.81494,2.97543 -19.9377,6.44904 -2.1435,1.80599 5.47413,11.54913 11.65001,14.90065 8.20238,4.45126 35.97788,5.31267 35.97788,1.11577 z m -314.65264,-2.32135 c 9.12655,-3.46992 22.21163,-15.30049 23.78597,-21.50554 0.69237,-2.72891 1.26145,-11.42411 1.26461,-19.32268 0.006,-15.51576 -4.24856,-23.71283 -17.40826,-33.53796 -10.33184,-7.71383 -33.70791,-7.30898 -44.63953,0.77311 -5.97545,4.41785 -8.60076,5.17601 -10.01265,2.89151 -1.26418,-2.04548 -2.46415,-2.20561 -3.53567,-0.47185 -0.89211,1.44345 -0.46948,3.33681 0.93918,4.20739 1.64721,1.01804 1.21064,4.19465 -1.22335,8.90146 -4.7673,9.21892 -4.88616,28.46676 -0.23105,37.41374 9.92917,19.08356 31.85712,27.95201 51.06074,20.65082 z m 62.99472,-7.49799 c -0.85974,-1.39107 -3.77228,-2.52922 -6.47233,-2.52922 -2.70006,0 -4.90919,1.13815 -4.90919,2.52922 0,1.39108 2.91255,2.52923 6.47233,2.52923 3.67083,0 5.79573,-1.09475 4.90919,-2.52923 z m 19.64962,0.87021 c -1.71236,-0.69281 -5.12681,-0.73497 -7.58767,-0.0938 -2.46086,0.64126 -1.05982,1.20811 3.1134,1.25966 4.17322,0.0516 6.18664,-0.47312 4.47427,-1.16595 z m 20.81798,-0.87021 c 0.88655,-1.43447 -1.23836,-2.52922 -4.90917,-2.52922 -3.55979,0 -6.47234,1.13815 -6.47234,2.52922 0,1.39108 2.20912,2.52923 4.90917,2.52923 2.70005,0 5.61261,-1.13815 6.47234,-2.52923 z m 95.04404,-3.22172 c 14.79114,-9.96773 20.63416,-21.17794 19.49962,-37.41129 -1.23927,-17.73207 -8.88982,-29.04527 -24.23101,-35.83144 -19.62828,-8.6825 -42.68971,-0.43561 -52.65157,18.82854 -5.62935,10.88594 -3.81139,33.9198 3.48598,44.16799 11.51184,16.16691 37.71839,21.14895 53.89698,10.2462 z m -154.48083,0.6925 c 0,-1.39108 -1.04507,-2.52923 -2.32237,-2.52923 -1.2773,0 -4.12268,-0.69083 -6.32307,-1.53521 -2.20038,-0.84436 -4.00069,-0.35875 -4.00069,1.07917 0,2.25999 3.92252,4.16523 10.74921,5.2211 1.0433,0.16137 1.89692,-0.84476 1.89692,-2.23583 z m 78.40598,-2.58742 c 0,-1.0986 -2.2763,-1.40221 -5.05845,-0.67465 -2.78215,0.72756 -5.05845,2.22167 -5.05845,3.32027 0,1.09859 2.2763,1.4022 5.05845,0.67464 2.78215,-0.72756 5.05845,-2.22167 5.05845,-3.32026 z m 16.2331,-4.00625 c 5.80731,-2.22847 4.9152,-5.81802 -1.05775,-4.25608 -2.78214,0.72756 -5.05845,2.32823 -5.05845,3.55706 0,2.64423 0.80683,2.73644 6.1162,0.69902 z m -194.75455,-67.65647 c -1.62609,-4.23752 -6.112,-5.80265 -6.112,-2.13247 0,2.46061 5.64258,8.35247 6.84629,7.14876 0.47325,-0.47325 0.14282,-2.73058 -0.73429,-5.01629 z m 271.44259,1.01986 c 1.69721,-2.71766 2.13742,-5.52735 0.97825,-6.24375 -1.15917,-0.7164 -3.38777,1.50711 -4.95242,4.9412 -3.3773,7.41232 -0.44221,8.37431 3.97417,1.30255 z m -281.28793,-20.16046 c -0.9163,-2.88698 -2.79461,-5.24905 -4.17404,-5.24905 -1.37943,0 -2.04731,0.85361 -1.48416,1.89692 0.56314,1.0433 1.79525,4.05159 2.73802,6.68507 2.30478,6.43802 5.03304,3.32411 2.92018,-3.33294 z m 290.52982,3.39637 c 2.76502,-7.20551 1.45195,-10.01265 -2.33905,-5.00048 -2.04238,2.70025 -3.71341,5.83017 -3.71341,6.95537 0,3.62028 4.46669,2.17759 6.05246,-1.95489 z m -299.18669,-25.62239 c -2.42956,-4.17477 -2.63722,-4.11743 -2.70823,0.74776 -0.0855,5.85481 3.12414,10.41988 4.47554,6.36568 0.47521,-1.42562 -0.32009,-4.62666 -1.76731,-7.11344 z m 306.64967,3.80899 c 1.36695,-5.2272 0.30842,-9.21478 -1.81972,-6.85506 -2.57518,2.85544 -4.15003,12.43536 -2.04425,12.43536 1.32258,0 3.06135,-2.51114 3.86397,-5.5803 z m -310.49506,-26.67372 c -2.91807,-2.91807 -4.41512,1.65204 -2.42519,7.40347 l 2.03489,5.88136 0.92964,-5.90791 c 0.51131,-3.24938 0.2686,-6.56898 -0.53934,-7.37692 z m 314.64547,5.06485 c -0.0301,-5.41998 -0.57997,-6.11787 -2.4905,-3.16153 -3.19798,4.9485 -3.19798,10.1169 0,10.1169 1.39107,0 2.5118,-3.12992 2.4905,-6.95537 z m -316.89094,-22.71489 c -0.64127,-2.46086 -1.20812,-1.05983 -1.25966,3.11339 -0.0516,4.17322 0.47313,6.18664 1.16594,4.47428 0.69281,-1.71236 0.73498,-5.12682 0.0937,-7.58767 z m 319.45889,3.11339 c 0,-3.47768 -1.13815,-6.32306 -2.52923,-6.32306 -1.39107,0 -2.52922,2.84538 -2.52922,6.32306 0,3.47769 1.13815,6.32307 2.52922,6.32307 1.39108,0 2.52923,-2.84538 2.52923,-6.32307 z m -288.07331,-17.68508 c 11.14143,-8.404 15.79935,-16.86876 16.95575,-30.81343 1.34783,-16.25299 -2.37428,-26.19273 -13.4498,-35.91716 -5.79394,-5.08715 -7.59943,-8.29149 -6.05012,-10.73757 3.8994,-6.15644 2.26546,-8.71738 -2.2245,-3.48655 -3.34632,3.89848 -7.6363,5.10363 -18.70792,5.25546 -24.37622,0.33429 -40.01243,16.88186 -40.01243,42.34456 0,13.08346 7.2402,25.26029 20.29399,34.13115 7.26138,4.93456 11.23401,5.80414 22.81776,4.99467 8.55864,-0.59807 16.50144,-2.84759 20.37727,-5.77113 z m 295.65077,0.94696 c 19.36344,-10.88287 26.69658,-40.05752 14.55326,-57.89975 -9.84422,-14.46416 -18.17253,-18.95422 -34.97236,-18.85474 -12.2091,0.0723 -15.24938,-0.74738 -16.41697,-4.42614 -0.78813,-2.48318 -2.49442,-4.51488 -3.79176,-4.51488 -3.30859,0 -2.93489,3.47066 0.7729,7.17846 2.48944,2.48944 1.38938,4.49526 -5.364,9.78059 -22.34331,17.48626 -19.96824,54.5038 4.40373,68.63626 12.07364,7.00108 28.46514,7.04132 40.8152,0.1002 z M -720.13223,215.66406 c -1.69947,-1.69947 -8.92891,4.6088 -8.92891,7.7912 0,1.43634 2.28328,0.54519 5.07395,-1.98034 2.79068,-2.52552 4.52541,-5.14041 3.85496,-5.81086 z m 232.59807,2.01555 c -2.52553,-2.79068 -5.14042,-4.52541 -5.81087,-3.85496 -1.69946,1.69947 4.60881,8.92892 7.79121,8.92892 1.43634,0 0.5452,-2.28328 -1.98034,-5.07396 z m -218.76395,-15.77922 c 0,-1.41087 -1.67754,-1.137 -3.79384,0.61938 -2.08661,1.73173 -3.79384,4.28675 -3.79384,5.67783 0,1.41087 1.67753,1.13699 3.79384,-0.61938 2.08661,-1.73174 3.79384,-4.28676 3.79384,-5.67783 z m 116.86677,1.80048 c 11.7735,-8.71237 17.91931,-22.60849 16.66874,-37.68902 -1.925,-23.21274 -17.31356,-37.68857 -40.15231,-37.77074 -20.69958,-0.0745 -40.26947,17.15314 -40.26947,35.44969 0,5.69575 -1.19613,8.47826 -3.64457,8.47826 -2.00452,0 -4.45879,1.31744 -5.45395,2.92764 -1.22993,1.99006 -0.1273,2.48776 3.44304,1.5541 4.04912,-1.05887 5.61449,0.0691 6.83287,4.92348 2.37617,9.46741 9.08492,18.56031 17.68356,23.9679 10.21623,6.42489 35.10083,5.40421 44.89209,-1.84131 z m 87.27786,-0.45847 c -2.31847,-2.31845 -5.09432,-3.33645 -6.16856,-2.26221 -1.07423,1.07424 0.23826,3.55557 2.91668,5.51407 6.3155,4.618 8.7186,2.21488 3.25188,-3.25186 z m -186.44006,-13.54674 c 0,-1.62682 -1.8048,-1.56332 -5.05845,0.17798 -2.78215,1.48896 -5.05845,3.84535 -5.05845,5.23643 0,1.62682 1.8048,1.56332 5.05845,-0.17799 2.78215,-1.48896 5.05845,-3.84535 5.05845,-5.23642 z m 169.48031,0.92054 c -2.97429,-2.08326 -6.10469,-3.09082 -6.95651,-2.23902 -2.08188,2.08189 7.57526,8.98653 10.25371,7.33117 1.16079,-0.71742 -0.32293,-3.00889 -3.2972,-5.09215 z m -152.93634,-8.49851 c 2.75517,-4.45796 -0.14933,-5.08298 -5.34709,-1.15065 -4.27911,3.23735 -4.35195,3.69709 -0.59694,3.76771 2.35229,0.0442 5.0271,-1.13344 5.94403,-2.61706 z m 136.62306,-1.17678 c -5.60633,-4.24041 -9.00118,-4.76653 -9.00118,-1.39494 0,2.61475 4.45379,4.81112 10.1169,4.9891 2.82712,0.0889 2.54281,-0.82699 -1.11572,-3.59416 z m -16.58886,-5.94764 c 0,-1.22883 -2.2763,-2.8295 -5.05845,-3.55705 -5.48022,-1.43311 -7.07475,2.02693 -1.89692,4.11623 4.98303,2.0107 6.95537,1.85213 6.95537,-0.55918 z"
       id="path1119"
       transform="scale(0.26458333)" />
    <path
       style="fill:#fbbebe;fill-opacity:1;stroke-width:2.52923"
       d="M -870.69776,445.3254 V 81.116946 h 410.99912 410.999126 V 445.3254 809.53386 H -459.69864 -870.69776 Z m 737.19517,305.64265 c 5.8568,-4.60698 6.71274,-6.79825 5.52193,-14.13642 -1.73986,-10.72149 -5.66423,-15.63742 -15.89839,-19.9154 -5.63769,-2.35663 -10.32874,-2.62071 -16.27242,-0.91609 -10.50408,3.01254 -11.78362,1.78513 -5.10317,-4.89531 6.60606,-6.60606 6.6902,-15.33146 0.26928,-27.91754 -4.93778,-9.67882 -9.12372,-12.08297 -28.51231,-16.3757 l -6.95537,-1.53994 v -36.42464 -36.42462 l -7.50747,-1.6489 c -6.06863,-1.3329 -7.81994,-3.31457 -9.13789,-10.33988 -0.89674,-4.78001 -3.87829,-11.54864 -6.62569,-15.04138 -5.3316,-6.77807 -39.35887,-23.95626 -47.45347,-23.95626 -2.66953,0 -5.55712,-1.13815 -6.41685,-2.52923 -0.85974,-1.39107 -2.91868,-2.49136 -4.57542,-2.44508 -1.65674,0.0463 -0.45142,2.22049 2.6785,4.83156 6.26575,5.2271 7.11496,10.46027 2.95795,18.22772 -3.73442,6.97783 -18.83868,12.92935 -27.81154,10.95858 -9.34209,-2.05186 -20.72844,-15.30285 -18.68414,-21.74385 2.08727,-6.57645 -0.59126,-6.07095 -20.61769,3.89096 -9.57666,4.76379 -24.61733,10.50948 -33.42374,12.76821 -20.03731,5.13936 -38.71043,13.33731 -56.93742,24.99699 -24.78264,15.85326 -24.44157,15.16524 -24.31597,49.05162 0.13228,35.7198 2.56845,49.95939 9.78211,57.17979 4.67125,4.67563 8.905,5.53875 30.87951,6.29532 l 25.46604,0.87678 -6.21896,6.7109 c -7.54207,8.13866 -9.87761,16.59718 -6.81037,24.66467 2.22772,5.85931 3.06138,6.02297 29.55261,5.80174 26.29314,-0.21953 41.17096,-2.97404 41.17096,-7.6224 0,-3.28038 8.62759,-2.7 12.14455,0.81697 1.94963,1.94962 10.97244,2.94189 25.1658,2.7675 15.13647,-0.1859 27.20439,1.25088 38.20053,4.54833 19.70143,5.90792 30.71658,6.27597 30.71658,1.02634 0,-4.99902 1.50264,-4.76274 16.43997,2.58519 9.12441,4.48847 17.22435,6.31062 29.08609,6.54321 9.04198,0.1773 19.85442,1.19121 24.02764,2.25311 12.98014,3.30289 18.05058,2.7152 25.21823,-2.92285 z m -2.73417,-162.74141 c 1.23949,-5.54133 1.00486,-6.56451 -0.87008,-3.79384 -1.41204,2.08661 -2.58477,5.97529 -2.60607,8.64153 -0.0516,6.47087 1.39593,4.45209 3.47615,-4.84769 z m -255.18607,-36.66735 c 5.73985,-2.7786 13.67304,-8.43066 17.62931,-12.56013 l 7.19324,-7.50813 -6.87853,-2.6152 c -9.13779,-3.47419 -30.03812,-3.32843 -37.92366,0.26446 -5.31942,2.42368 -14.15163,15.5172 -14.15163,20.97939 0,2.36415 10.48033,6.14754 17.53836,6.33131 3.38625,0.0883 10.85306,-2.11309 16.59291,-4.8917 z m 115.89682,-32.16337 c 1.61585,0.3138 3.73043,-6.17045 5.02709,-15.41515 2.08886,-14.89296 1.8043,-16.58272 -4.2682,-25.34532 -6.76196,-9.75752 -18.43471,-18.1347 -25.26888,-18.1347 -2.47778,0 -3.41241,-1.41793 -2.5007,-3.79383 3.54454,-9.23686 -10.27614,-2.68758 -28.02093,13.27843 -17.57493,15.81317 -18.97693,17.81839 -19.00971,27.18917 -0.0448,12.75473 3.90621,20.43101 14.8199,28.79412 l 8.60682,6.59536 -4.18068,-8.08454 c -2.29937,-4.44651 -4.18068,-9.6948 -4.18068,-11.66289 0,-4.87175 10.00908,-17.27183 12.63262,-15.65039 1.16089,0.71746 2.5161,0.0883 3.01162,-1.39831 0.63545,-1.90635 3.05943,-1.88212 8.22616,0.0822 4.7382,1.80146 7.86806,1.90671 8.8623,0.29799 0.84542,-1.36788 3.51221,-2.19716 5.9262,-1.84287 8.37042,1.22852 10.6702,6.47988 10.31125,23.54487 -0.34625,16.46257 -0.31223,16.54991 3.43355,8.81574 2.08079,-4.29637 5.03832,-7.56785 6.57227,-7.26993 z m -95.59311,-21.04844 c 0.89089,-1.44146 -2.89156,-7.13222 -8.40545,-12.64613 -11.13279,-11.13277 -22.56871,-13.2687 -32.77322,-6.12118 -4.79653,3.35959 -5.13954,4.63612 -2.4597,9.15344 1.71277,2.88716 6.52859,6.77656 10.70181,8.64307 9.04031,4.0434 30.64407,4.68016 32.93656,0.9708 z m -305.42847,-6.66681 c 13.20417,-9.85834 17.04014,-17.73142 17.04014,-34.97375 0,-17.36637 -3.82306,-25.10578 -17.41401,-35.25288 -10.20813,-7.62146 -33.70899,-7.30817 -44.39429,0.59182 -4.31957,3.19357 -9.16095,4.99863 -10.75862,4.01122 -1.84882,-1.14263 -2.38815,-0.44879 -1.48354,1.90858 0.78172,2.03711 -0.1227,6.49189 -2.00979,9.89949 -4.50645,8.13743 -4.53776,28.69201 -0.0568,37.30425 4.44377,8.54077 13.48659,17.09516 21.74003,20.56577 9.26316,3.89518 29.65511,1.68077 37.3369,-4.0545 z m 53.71391,-3.35844 c 0,-1.39107 -2.34347,-2.52922 -5.20771,-2.52922 -2.86425,0 -4.50431,1.13815 -3.64458,2.52922 0.85974,1.39108 3.20321,2.52923 5.20772,2.52923 2.00452,0 3.64457,-1.13815 3.64457,-2.52923 z m 19.54882,1.00115 c -0.84047,-0.84044 -3.02192,-0.93028 -4.84769,-0.19956 -2.01764,0.80738 -1.41834,1.40671 1.52808,1.52806 2.66621,0.10977 4.16004,-0.48797 3.31961,-1.3284 z m 22.1834,-1.00115 c 0.88655,-1.43447 -1.23836,-2.52922 -4.90917,-2.52922 -3.55979,0 -6.47234,1.13815 -6.47234,2.52922 0,1.39108 2.20912,2.52923 4.90917,2.52923 2.70005,0 5.61261,-1.13815 6.47234,-2.52923 z m 94.87168,-3.16153 c 13.06309,-8.89066 18.40206,-17.88043 19.46489,-32.77504 0.75083,-10.52226 -0.28644,-15.54609 -4.85209,-23.50022 -6.27392,-10.93025 -23.41641,-21.49842 -34.87233,-21.49842 -10.17942,0 -28.46595,10.50979 -34.75644,19.97552 -7.55796,11.37302 -7.72223,30.13592 -0.37822,43.20279 10.82855,19.2668 38.00822,26.42815 55.39419,14.59537 z m -158.27019,-2.15545 c -6.79123,-2.65946 -8.68441,-2.64353 -8.68441,0.0731 0,2.75557 7.80385,4.91155 11.21363,3.098 1.29874,-0.69076 0.16058,-2.11775 -2.52922,-3.17109 z m 82.3677,0.49532 c 0,-1.26084 -2.2763,-1.69719 -5.05845,-0.96963 -2.78215,0.72756 -5.05845,1.75915 -5.05845,2.29244 0,0.53329 2.2763,0.96963 5.05845,0.96963 2.78215,0 5.05845,-1.0316 5.05845,-2.29244 z m 17.70458,-5.29524 c 3.2695,-2.11291 3.20273,-2.45711 -0.48303,-2.4905 -2.35228,-0.0202 -4.9803,1.09943 -5.84003,2.4905 -1.97831,3.20099 1.3699,3.20099 6.32306,0 z m -196.22603,-66.66246 c -0.87711,-2.28571 -2.65117,-4.15585 -3.94236,-4.15585 -1.29201,0 -1.07819,2.37193 0.47552,5.27508 3.22056,6.01766 5.8765,5.16023 3.46684,-1.11923 z m 272.06407,-2.4082 c 0.0213,-1.12541 -1.09943,-1.34277 -2.4905,-0.48304 -1.39108,0.85974 -2.5118,3.48776 -2.49051,5.84004 0.0334,3.68576 0.37759,3.75253 2.49051,0.48303 1.34848,-2.08661 2.4692,-4.71463 2.4905,-5.84003 z m -282.97861,-18.72462 c -2.42956,-4.17476 -2.63721,-4.11743 -2.70823,0.74777 -0.0855,5.8548 3.12415,10.41987 4.47555,6.36568 0.4752,-1.42563 -0.32009,-4.62666 -1.76732,-7.11345 z m 290.60501,7.06694 c 0,-1.27731 0.662,-4.40723 1.4711,-6.95537 1.34613,-4.23954 1.13134,-4.21607 -2.52923,0.27654 -4.58106,5.62227 -5.13326,9.00119 -1.4711,9.00119 1.39108,0 2.52923,-1.04508 2.52923,-2.32236 z m -298.19268,-27.30074 c -2.42956,-4.17477 -2.63722,-4.11743 -2.70823,0.74776 -0.0855,5.85481 3.12414,10.41988 4.47554,6.36568 0.47521,-1.42562 -0.32009,-4.62666 -1.76731,-7.11344 z m 306.51254,4.33337 c 0.72718,-2.78078 0.29086,-5.69331 -0.96963,-6.47234 -1.26049,-0.77902 -2.29178,-0.30416 -2.29178,1.05525 0,1.35938 -0.69083,4.27193 -1.53522,6.47231 -0.84435,2.2004 -0.40804,4.0007 0.96963,4.0007 1.37767,0 3.09982,-2.27516 3.827,-5.05592 z m -311.58972,-26.06928 c -3.30302,-3.30302 -3.76246,0.35753 -0.94422,7.523 1.75751,4.46854 1.85571,4.46636 2.76642,-0.0617 0.51932,-2.58214 -0.30067,-5.93968 -1.8222,-7.46122 z m 315.73821,3.93603 c -0.15758,-6.16332 -0.42529,-6.37934 -2.35145,-1.89692 -2.96858,6.90828 -2.96858,8.85229 0,8.85229 1.39107,0 2.44923,-3.12992 2.35145,-6.95537 z m 2.707,-19.6015 c 0,-3.47768 -1.13815,-6.32306 -2.52923,-6.32306 -1.39107,0 -2.52922,2.84538 -2.52922,6.32306 0,3.47769 1.13815,6.32307 2.52922,6.32307 1.39108,0 2.52923,-2.84538 2.52923,-6.32307 z m -319.48387,-1.73884 c -0.8074,-2.01765 -1.40672,-1.41833 -1.52808,1.52808 -0.10982,2.66621 0.48796,4.16005 1.3284,3.31961 0.84044,-0.84046 0.9303,-3.02192 0.19968,-4.84769 z m 28.82104,-15.39362 c 13.29842,-8.9618 20.03571,-20.80378 20.03571,-35.21629 0,-14.39895 -4.4082,-24.19683 -14.83312,-32.96882 -5.24486,-4.41327 -6.76923,-7.28858 -5.18802,-9.78587 3.9956,-6.31048 2.27522,-8.74667 -2.30621,-3.26579 -3.37293,4.03511 -6.44898,5.03628 -12.66895,4.12338 -12.10183,-1.77617 -29.68059,5.90524 -37.76244,16.5011 -5.82702,7.63961 -6.91186,11.54476 -6.91186,24.88098 0,17.6929 4.30662,25.82974 18.94347,35.7915 11.387,7.74992 29.14096,7.72367 40.69142,-0.0602 z m 298.4486,0 c 25.49537,-17.18133 27.20143,-51.02773 3.48395,-69.11795 -7.9576,-6.06954 -11.90676,-7.24662 -24.31288,-7.24662 -11.93863,0 -15.08716,-0.86681 -16.23025,-4.4683 -0.77998,-2.45756 -2.51966,-4.4683 -3.86594,-4.4683 -1.50054,0 -1.41214,1.9351 0.22839,5.00049 2.25645,4.21621 1.10249,6.57418 -7.3576,15.03428 -10.92311,10.92311 -14.47121,22.07893 -11.95458,37.58714 4.44109,27.36724 37.7046,42.71012 60.00891,27.67926 z m -284.63195,-95.58634 c 2.72213,-4.4045 -0.37818,-5.33727 -3.84711,-1.15746 -1.99493,2.40373 -2.1868,3.85496 -0.50969,3.85496 1.47931,0 3.43987,-1.21388 4.3568,-2.6975 z m 235.21796,-2.19268 c -0.91694,-1.48362 -2.8775,-2.6975 -4.35679,-2.6975 -1.67713,0 -1.48524,1.45123 0.50969,3.85496 3.46893,4.17981 6.56923,3.24704 3.8471,-1.15746 z m -218.88199,-15.963 c 0,-1.41087 -1.67754,-1.137 -3.79384,0.61938 -2.08661,1.73173 -3.79384,4.28675 -3.79384,5.67783 0,1.41087 1.67753,1.13699 3.79384,-0.61938 2.08661,-1.73174 3.79384,-4.28676 3.79384,-5.67783 z m 119.18767,-0.80681 c 15.0306,-14.13505 18.55758,-31.92249 10.04593,-50.66438 -15.87441,-34.95401 -70.26667,-26.86473 -75.37351,11.20962 -0.84143,6.27331 -2.75112,10.53024 -4.72395,10.53024 -1.82136,0 -4.12577,1.31744 -5.12093,2.92764 -1.22993,1.99006 -0.1273,2.48776 3.44304,1.5541 4.08124,-1.06727 5.61683,0.0784 6.88673,5.13807 4.69366,18.70103 20.41361,28.93716 42.40047,27.60928 11.93374,-0.72073 15.96356,-2.21193 22.44222,-8.30457 z m 85.01718,2.20904 c -2.3516,-2.35158 -5.12335,-3.42784 -6.1595,-2.3917 -1.03615,1.03614 -0.20967,2.94273 1.8367,4.23686 6.15757,3.89418 8.89407,2.72612 4.3228,-1.84516 z m -189.10275,-10.80096 c 2.04632,-1.29414 3.10139,-2.97218 2.34459,-3.72898 -0.7568,-0.7568 -3.56922,0.28327 -6.24982,2.31127 -5.33255,4.03432 -2.09226,5.21064 3.90523,1.41771 z m 172.06057,-1.36341 c -1.73173,-2.08661 -4.28675,-3.79384 -5.67783,-3.79384 -1.41088,0 -1.13699,1.67754 0.61938,3.79384 1.73174,2.08661 4.28676,3.79384 5.67784,3.79384 1.41087,0 1.13698,-1.67754 -0.61939,-3.79384 z m -154.28274,-8.85229 c 3.26949,-2.11291 3.20273,-2.45712 -0.48304,-2.49049 -2.35229,-0.0213 -4.9803,1.09942 -5.84003,2.49049 -1.97831,3.20098 1.3699,3.20098 6.32307,0 z m 136.58199,-1.14728 c -3.47559,-1.92349 -6.85709,-2.95942 -7.51443,-2.30208 -1.70157,1.70156 5.52218,5.91084 10.03983,5.85023 2.19947,-0.0295 1.13815,-1.52062 -2.5254,-3.54815 z m -16.44379,-6.44039 c -0.85973,-1.39108 -3.48775,-2.5118 -5.84003,-2.4905 -3.68577,0.0334 -3.75254,0.37758 -0.48303,2.4905 4.95316,3.20098 8.30137,3.20098 6.32306,0 z"
       id="path1121"
       transform="scale(0.26458333)" />
  </g>
</svg>
